<svg xmlns="http://www.w3.org/2000/svg" xmlns:xlink="http://www.w3.org/1999/xlink" width="1920" height="385" viewBox="0 0 1920 385"><defs><clipPath id="a"><rect width="1920" height="385" transform="translate(0 695)" fill="#fff"/></clipPath></defs><g transform="translate(0 -695)" clip-path="url(#a)"><g transform="translate(0 30)"><g transform="translate(0 73)"><path d="M0,0H1919.89V21.2H0Z" transform="translate(0 955.797)" fill="#435929"/><path d="M170.665,567.373l-16.444-21.249L101.97,552.4l12.988,14.969Z" transform="translate(1160 409.65)" fill="#435929" opacity="0.5" style="mix-blend-mode:multiply;isolation:isolate"/><path d="M358.858,566.345,342.3,546.124l-52.252,6.28,12.075,13.941Z" transform="translate(1106.861 409.673)" fill="#435929" opacity="0.5" style="mix-blend-mode:multiply;isolation:isolate"/><path d="M574.546,566.965l-16.425-20.117-52.252,6.28,14.482,13.837Z" transform="translate(1045.884 409.452)" fill="#435929" opacity="0.5" style="mix-blend-mode:multiply;isolation:isolate"/></g><g transform="translate(9 84)"><g transform="translate(1456.144 581.44)"><g transform="translate(0 0)"><path d="M518.049,421.882c-28-62.589-18.748-98.906-6.826-136.267-13.561-17.062-37.994-33.129-77.524-45.5,32.384,2.965,69.021,28.037,80.022,37.72,6.355-19.717,11.74-28.863,13.272-54.114-5.784-14.577-22.662-31.161-47.2-47.973,18.683,7.652,39.518,27.682,47.528,38.734.131-11.794-1.777-55.412-16.091-88.136,22.763,36.141,25.846,94.417,21.605,115.109,12.833-9.622,38.742-25.336,62.035-27.465-32.419,10.143-52.783,23.238-64.369,37.186-11.887,43.6-31.37,77.316,7.8,164.868Z" transform="translate(-400.29 -67.015)" fill="#556f32" fill-rule="evenodd"/><g transform="translate(72.462)"><path d="M558.082,79.74A35.318,35.318,0,1,1,522.5,44.692,35.317,35.317,0,0,1,558.082,79.74Z" transform="translate(-487.447 -44.691)" fill="#f9ca35"/><path d="M555.052,81.6a30.46,30.46,0,1,1-30.693-30.229A30.461,30.461,0,0,1,555.052,81.6Z" transform="translate(-489.274 -46.518)" fill="#c99204"/><path d="M488.991,81.051A35.331,35.331,0,0,1,539.311,48.8a35.325,35.325,0,1,0-31.549,63.191A35.313,35.313,0,0,1,488.991,81.051Z" transform="translate(-487.447 -44.691)" fill="#b78523"/><path d="M554.1,82.189a28.937,28.937,0,1,1-29.156-28.712A28.937,28.937,0,0,1,554.1,82.189Z" transform="translate(-489.847 -47.092)" fill="#e8af2e"/><path d="M558.163,97.706a29.988,29.988,0,0,1-30.305,16.381,28.938,28.938,0,0,0,25.485-50.161A30,30,0,0,1,558.163,97.706Z" transform="translate(-498.495 -49.949)" fill="#b78523"/><g transform="translate(22.276 14.05)"><path d="M534.483,64.027v4.867a5.983,5.983,0,0,1,2.623,2.295l.373-2.62h6.834V79.518h-7.207a4.912,4.912,0,0,0-5.2-5.195,2.621,2.621,0,0,0-2.761,2.385c0,4.589,15.771,3.56,15.771,14,0,6.83-5.618,8.983-10.437,9.079v4.82h-6.6v-6.13a13.536,13.536,0,0,1-2.431-1.734l-.516,2.81H518.1V88.27h7.347c0,3.743,3.884,4.4,5.662,4.493,1.357,0,3.416-.374,3.416-2.292,0-3.463-15.209-2.856-15.209-13.338,0-6.226,4.677-8.892,8.562-9.173V64.027Z" transform="translate(-518.104 -64.027)" fill="#c99204"/></g><g transform="translate(23.048 13.568)"><path d="M535.548,63.363v4.869a5.94,5.94,0,0,1,2.619,2.291l.374-2.619h6.832V78.855h-7.206a4.91,4.91,0,0,0-5.192-5.2,2.625,2.625,0,0,0-2.765,2.387c0,4.587,15.774,3.555,15.774,13.993,0,6.833-5.615,8.987-10.436,9.077v4.822h-6.6v-6.13a13.745,13.745,0,0,1-2.43-1.729L526,98.885h-6.829V87.606h7.348c0,3.746,3.884,4.4,5.66,4.493,1.356,0,3.417-.376,3.417-2.294,0-3.464-15.21-2.854-15.21-13.338,0-6.226,4.678-8.9,8.562-9.176V63.363Z" transform="translate(-519.167 -63.363)" fill="#f8dc4a"/></g><g transform="translate(2.597 7.235)"><path d="M503.558,73.873c-.809-2.655-.863-7.05-.254-8.19.594-1.118,4.287-3.544,6.938-4.349-2.651.806-6.872.955-8.185.254-1.38-.734-3.544-4.286-4.352-6.94.828,2.719.966,6.85.164,8.357-.831,1.553-4.262,3.389-6.848,4.177,2.653-.806,6.885-.946,8.185-.252C500.524,67.63,502.748,71.218,503.558,73.873Z" transform="translate(-491.021 -54.648)" fill="#fff"/><g transform="translate(14.944 11.916)"><path d="M516.049,77.892a5.852,5.852,0,0,1-.088-2.914,5.834,5.834,0,0,1,2.468-1.55,5.393,5.393,0,0,1-2.913.089,5.341,5.341,0,0,1-1.548-2.47,5.225,5.225,0,0,1,.058,2.977,4.946,4.946,0,0,1-2.438,1.487,5.453,5.453,0,0,1,2.915-.09A5.39,5.39,0,0,1,516.049,77.892Z" transform="translate(-511.588 -71.048)" fill="#fff"/></g><g transform="translate(2.892 20.314)"><path d="M501.195,92.1a8.066,8.066,0,0,1-.125-4.047,8.081,8.081,0,0,1,3.427-2.148,7.566,7.566,0,0,1-4.043.125,7.413,7.413,0,0,1-2.151-3.429,7.233,7.233,0,0,1,.082,4.129c-.41.767-2.1,1.674-3.385,2.066a7.534,7.534,0,0,1,4.045-.127A7.545,7.545,0,0,1,501.195,92.1Z" transform="translate(-495.001 -82.605)" fill="#fff"/></g></g></g><g transform="translate(182.078 111.717)"><path d="M699.981,229.047a30.838,30.838,0,1,1-31.072-30.6A30.838,30.838,0,0,1,699.981,229.047Z" transform="translate(-638.306 -198.442)" fill="#f9ca35"/><path d="M697.336,230.673a26.6,26.6,0,1,1-26.8-26.4A26.6,26.6,0,0,1,697.336,230.673Z" transform="translate(-639.901 -200.037)" fill="#c99204"/><path d="M639.652,230.191a30.849,30.849,0,0,1,43.938-28.16,30.844,30.844,0,1,0-27.547,55.177A30.835,30.835,0,0,1,639.652,230.191Z" transform="translate(-638.306 -198.442)" fill="#b78523"/><path d="M696.5,231.184a25.266,25.266,0,1,1-25.458-25.071A25.265,25.265,0,0,1,696.5,231.184Z" transform="translate(-640.401 -200.539)" fill="#e8af2e"/><path d="M700.052,244.732a26.19,26.19,0,0,1-26.462,14.3,25.268,25.268,0,0,0,22.252-43.8A26.2,26.2,0,0,1,700.052,244.732Z" transform="translate(-647.952 -203.033)" fill="#b78523"/><g transform="translate(19.449 12.268)"><path d="M679.375,215.326v4.249a5.229,5.229,0,0,1,2.29,2l.324-2.287h5.967v9.561h-6.291a4.29,4.29,0,0,0-4.537-4.537,2.291,2.291,0,0,0-2.412,2.085c0,4.006,13.771,3.106,13.771,12.221,0,5.963-4.9,7.843-9.112,7.924v4.212h-5.762V245.4a11.713,11.713,0,0,1-2.124-1.512l-.452,2.454h-5.965v-9.85h6.417c0,3.269,3.39,3.842,4.942,3.922,1.187,0,2.983-.327,2.983-2,0-3.023-13.279-2.492-13.279-11.644a7.725,7.725,0,0,1,7.477-8.01v-3.435Z" transform="translate(-665.072 -215.326)" fill="#c99204"/></g><g transform="translate(20.124 11.848)"><path d="M680.3,214.748V219a5.184,5.184,0,0,1,2.287,2l.327-2.286h5.967v9.561h-6.294a4.287,4.287,0,0,0-4.534-4.535,2.293,2.293,0,0,0-2.414,2.085c0,4,13.774,3.1,13.774,12.218,0,5.966-4.9,7.847-9.112,7.924v4.211h-5.765v-5.354a11.875,11.875,0,0,1-2.122-1.511l-.452,2.452H666v-9.848h6.417c0,3.268,3.39,3.842,4.943,3.924,1.184,0,2.983-.328,2.983-2.005,0-3.023-13.281-2.489-13.281-11.644a7.731,7.731,0,0,1,7.477-8.012v-3.429Z" transform="translate(-666.001 -214.748)" fill="#f8dc4a"/></g><g transform="translate(2.267 6.317)"><path d="M652.372,223.923c-.706-2.316-.753-6.155-.221-7.153.519-.973,3.743-3.091,6.057-3.8-2.314.7-6,.836-7.148.222-1.205-.642-3.093-3.742-3.8-6.06.724,2.375.844,5.98.144,7.3-.725,1.358-3.721,2.962-5.979,3.648,2.315-.7,6.012-.828,7.148-.221S651.666,221.606,652.372,223.923Z" transform="translate(-641.426 -207.136)" fill="#fff"/><g transform="translate(13.048 10.404)"><path d="M663.28,227.433a5.1,5.1,0,0,1-.078-2.546,5.093,5.093,0,0,1,2.155-1.353,4.732,4.732,0,0,1-2.544.08,4.681,4.681,0,0,1-1.351-2.159,4.584,4.584,0,0,1,.052,2.6,4.339,4.339,0,0,1-2.13,1.3,2.557,2.557,0,0,1,3.9,2.08Z" transform="translate(-659.383 -221.455)" fill="#fff"/></g><g transform="translate(2.525 17.738)"><path d="M650.308,239.842a7.043,7.043,0,0,1-.109-3.534,7.062,7.062,0,0,1,2.992-1.875,6.591,6.591,0,0,1-3.53.108,6.49,6.49,0,0,1-1.879-2.993,6.308,6.308,0,0,1,.074,3.605,6.01,6.01,0,0,1-2.956,1.8,3.547,3.547,0,0,1,5.407,2.885Z" transform="translate(-644.901 -231.548)" fill="#fff"/></g></g></g><g transform="translate(27.551 70.077)"><path d="M482.664,169.432a28.514,28.514,0,1,1-28.731-28.3A28.513,28.513,0,0,1,482.664,169.432Z" transform="translate(-425.637 -141.134)" fill="#f9ca35"/><path d="M480.217,170.936a24.592,24.592,0,1,1-24.782-24.405A24.592,24.592,0,0,1,480.217,170.936Z" transform="translate(-427.112 -142.609)" fill="#c99204"/><path d="M426.883,170.49a28.527,28.527,0,0,1,40.627-26.038,28.52,28.52,0,1,0-25.473,51.018A28.509,28.509,0,0,1,426.883,170.49Z" transform="translate(-425.637 -141.134)" fill="#b78523"/><path d="M479.448,171.41a23.362,23.362,0,1,1-23.54-23.183A23.363,23.363,0,0,1,479.448,171.41Z" transform="translate(-427.575 -143.073)" fill="#e8af2e"/><path d="M482.73,183.936a24.211,24.211,0,0,1-24.467,13.225,23.361,23.361,0,0,0,20.574-40.5A24.214,24.214,0,0,1,482.73,183.936Z" transform="translate(-434.556 -145.38)" fill="#b78523"/><g transform="translate(17.984 11.344)"><path d="M463.611,156.746v3.928a4.842,4.842,0,0,1,2.118,1.852l.3-2.114h5.517v8.84h-5.816a3.967,3.967,0,0,0-4.2-4.194,2.117,2.117,0,0,0-2.229,1.928c0,3.7,12.732,2.872,12.732,11.3,0,5.514-4.536,7.252-8.426,7.33v3.891h-5.328v-4.951a10.834,10.834,0,0,1-1.964-1.4l-.417,2.27h-5.516v-9.106h5.933c0,3.021,3.135,3.552,4.57,3.626,1.1,0,2.759-.3,2.759-1.849,0-2.8-12.278-2.306-12.278-10.768a7.144,7.144,0,0,1,6.914-7.407v-3.175Z" transform="translate(-450.387 -156.746)" fill="#c99204"/></g><g transform="translate(18.606 10.955)"><path d="M464.47,156.211v3.929a4.8,4.8,0,0,1,2.114,1.851l.3-2.115H472.4v8.841h-5.819a3.963,3.963,0,0,0-4.193-4.193,2.118,2.118,0,0,0-2.23,1.927c0,3.7,12.735,2.869,12.735,11.3,0,5.517-4.534,7.256-8.426,7.328v3.895h-5.33v-4.951a11.052,11.052,0,0,1-1.963-1.4l-.417,2.266h-5.516v-9.106h5.933c0,3.025,3.136,3.551,4.57,3.629,1.1,0,2.76-.3,2.76-1.854,0-2.8-12.28-2.3-12.28-10.768a7.146,7.146,0,0,1,6.914-7.407v-3.172Z" transform="translate(-451.244 -156.211)" fill="#f8dc4a"/></g><g transform="translate(2.096 5.841)"><path d="M438.643,164.695c-.652-2.143-.7-5.691-.2-6.613.48-.9,3.462-2.86,5.6-3.511-2.14.651-5.548.772-6.609.2-1.112-.593-2.86-3.461-3.513-5.6.669,2.2.78,5.53.134,6.747-.671,1.254-3.442,2.738-5.53,3.374,2.141-.651,5.561-.766,6.609-.2C436.194,159.656,437.99,162.552,438.643,164.695Z" transform="translate(-428.521 -149.173)" fill="#fff"/><g transform="translate(12.067 9.621)"><path d="M448.729,167.939a4.714,4.714,0,0,1-.071-2.352,4.712,4.712,0,0,1,1.994-1.251,2.365,2.365,0,0,1-3.6-1.922,4.228,4.228,0,0,1,.049,2.4,4.01,4.01,0,0,1-1.969,1.2,4.42,4.42,0,0,1,2.352-.074A4.374,4.374,0,0,1,448.729,167.939Z" transform="translate(-445.128 -162.414)" fill="#fff"/></g><g transform="translate(2.335 16.4)"><path d="M436.735,179.413a6.481,6.481,0,0,1-.1-3.267,6.513,6.513,0,0,1,2.766-1.734,6.115,6.115,0,0,1-3.264.1,5.982,5.982,0,0,1-1.737-2.769,5.837,5.837,0,0,1,.067,3.334,5.539,5.539,0,0,1-2.733,1.669,3.281,3.281,0,0,1,5,2.667Z" transform="translate(-431.734 -171.744)" fill="#fff"/></g></g></g><g transform="translate(0 145.995)"><path d="M449.393,276.221a30.837,30.837,0,1,1-31.071-30.6A30.835,30.835,0,0,1,449.393,276.221Z" transform="translate(-387.72 -245.617)" fill="#f9ca35"/><path d="M446.747,277.848a26.6,26.6,0,1,1-26.8-26.394A26.595,26.595,0,0,1,446.747,277.848Z" transform="translate(-389.316 -247.212)" fill="#c99204"/><path d="M389.067,277.365A30.848,30.848,0,0,1,433,249.206a30.843,30.843,0,1,0-27.546,55.174A30.832,30.832,0,0,1,389.067,277.365Z" transform="translate(-387.72 -245.617)" fill="#b78523"/><path d="M445.916,278.36a25.265,25.265,0,1,1-25.457-25.071A25.263,25.263,0,0,1,445.916,278.36Z" transform="translate(-389.816 -247.714)" fill="#e8af2e"/><path d="M449.464,291.906A26.187,26.187,0,0,1,423,306.21a25.266,25.266,0,0,0,22.251-43.8A26.19,26.19,0,0,1,449.464,291.906Z" transform="translate(-397.366 -250.209)" fill="#b78523"/><g transform="translate(19.449 12.269)"><path d="M428.788,262.5v4.248a5.227,5.227,0,0,1,2.29,2l.325-2.289h5.967v9.561h-6.292a4.29,4.29,0,0,0-4.537-4.536,2.291,2.291,0,0,0-2.412,2.085c0,4.006,13.771,3.106,13.771,12.219,0,5.964-4.9,7.843-9.112,7.925v4.21h-5.763v-5.353a11.864,11.864,0,0,1-2.123-1.513l-.451,2.452h-5.965v-9.847H420.9c0,3.268,3.391,3.842,4.943,3.921,1.187,0,2.983-.326,2.983-2,0-3.023-13.279-2.492-13.279-11.645a7.725,7.725,0,0,1,7.475-8.009V262.5Z" transform="translate(-414.487 -262.502)" fill="#c99204"/></g><g transform="translate(20.124 11.848)"><path d="M429.718,261.922v4.25a5.181,5.181,0,0,1,2.287,2l.327-2.287H438.3v9.562H432a4.286,4.286,0,0,0-4.534-4.536A2.291,2.291,0,0,0,425.058,273c0,4.005,13.772,3.1,13.772,12.218,0,5.966-4.9,7.846-9.112,7.926v4.211h-5.764v-5.355a11.9,11.9,0,0,1-2.123-1.51l-.451,2.451h-5.964v-9.847h6.415c0,3.269,3.392,3.842,4.943,3.924,1.184,0,2.983-.328,2.983-2,0-3.024-13.28-2.492-13.28-11.645a7.728,7.728,0,0,1,7.477-8.012v-3.43Z" transform="translate(-415.415 -261.922)" fill="#f8dc4a"/></g><g transform="translate(2.268 6.317)"><path d="M401.787,271.1c-.706-2.317-.753-6.155-.222-7.151.519-.975,3.743-3.095,6.058-3.8-2.316.7-6,.834-7.148.222-1.205-.642-3.093-3.743-3.8-6.06.724,2.375.844,5.981.143,7.3-.724,1.358-3.722,2.961-5.978,3.648,2.315-.7,6.012-.825,7.147-.221S401.08,268.781,401.787,271.1Z" transform="translate(-390.841 -254.311)" fill="#fff"/><g transform="translate(13.048 10.405)"><path d="M412.694,274.607a2.56,2.56,0,0,1,2.079-3.9,4.722,4.722,0,0,1-2.544.078,4.672,4.672,0,0,1-1.352-2.157,4.573,4.573,0,0,1,.052,2.6,4.327,4.327,0,0,1-2.13,1.3,2.557,2.557,0,0,1,3.895,2.079Z" transform="translate(-408.799 -268.631)" fill="#fff"/></g><g transform="translate(2.524 17.738)"><path d="M399.723,287.017a7.033,7.033,0,0,1-.109-3.534,7.062,7.062,0,0,1,2.994-1.877,6.607,6.607,0,0,1-3.531.11,6.475,6.475,0,0,1-1.878-2.994,6.319,6.319,0,0,1,.072,3.605,6,6,0,0,1-2.956,1.8,3.548,3.548,0,0,1,5.408,2.885Z" transform="translate(-394.315 -278.723)" fill="#fff"/></g></g></g><g transform="translate(142.229 118.615)"><path d="M620.9,228.308a18.719,18.719,0,1,1-18.861-18.577A18.72,18.72,0,0,1,620.9,228.308Z" transform="translate(-583.463 -208.426)" fill="#f9ca35"/><path d="M619.293,229.295a16.144,16.144,0,1,1-16.266-16.022A16.142,16.142,0,0,1,619.293,229.295Z" transform="translate(-584.432 -209.394)" fill="#c99204"/><path d="M584.281,229a18.725,18.725,0,0,1,26.671-17.092A18.722,18.722,0,1,0,594.231,245.4,18.716,18.716,0,0,1,584.281,229Z" transform="translate(-583.463 -208.426)" fill="#b78523"/><path d="M618.789,229.606a15.336,15.336,0,1,1-15.452-15.219A15.336,15.336,0,0,1,618.789,229.606Z" transform="translate(-584.736 -209.699)" fill="#e8af2e"/><path d="M620.943,237.827a15.9,15.9,0,0,1-16.06,8.684,15.337,15.337,0,0,0,13.5-26.585A15.888,15.888,0,0,1,620.943,237.827Z" transform="translate(-589.319 -211.213)" fill="#b78523"/><g transform="translate(3.233)"><path d="M594.559,218.126a8.629,8.629,0,0,1-.135-4.341,8.71,8.71,0,0,1,3.677-2.306,8.105,8.105,0,0,1-4.338.137c-.731-.39-1.878-2.274-2.306-3.68a7.746,7.746,0,0,1,.086,4.429c-.44.825-2.259,1.8-3.629,2.217a4.361,4.361,0,0,1,6.646,3.545Z" transform="translate(-587.913 -207.935)" fill="#fff"/><g transform="translate(7.921 6.317)"><path d="M601.18,220.256a1.552,1.552,0,0,1,1.262-2.365,2.9,2.9,0,0,1-1.546.048,2.821,2.821,0,0,1-.82-1.31,2.771,2.771,0,0,1,.031,1.577,2.615,2.615,0,0,1-1.293.788,1.555,1.555,0,0,1,2.366,1.262Z" transform="translate(-598.814 -216.629)" fill="#fff"/></g><g transform="translate(1.532 10.767)"><path d="M593.3,227.788a2.156,2.156,0,0,1,1.75-3.284,3.991,3.991,0,0,1-2.143.067,3.931,3.931,0,0,1-1.139-1.819,3.85,3.85,0,0,1,.044,2.189,3.634,3.634,0,0,1-1.8,1.095,2.153,2.153,0,0,1,3.283,1.751Z" transform="translate(-590.022 -222.753)" fill="#fff"/></g></g><g transform="translate(7.541 9.907)"><g transform="translate(0 0.523)"><g transform="translate(4.177)"><path d="M613.563,240.228a11.5,11.5,0,0,1-4.694.81c-5.773,0-9.279-3.616-9.279-9.145,0-5.989,4.155-9.6,9.712-9.6a10.446,10.446,0,0,1,4.424.809l-.73,2.643a8.817,8.817,0,0,0-3.56-.7c-3.7,0-6.366,2.32-6.366,6.69,0,3.992,2.347,6.555,6.339,6.555a9.278,9.278,0,0,0,3.614-.676Z" transform="translate(-599.59 -222.29)" fill="#c99204"/></g><g transform="translate(0 6.762)"><rect width="14.829" height="2.17" fill="#c99204"/><rect width="14.829" height="2.169" transform="translate(0 3.708)" fill="#c99204"/></g></g><path d="M608.557,237.567a5.823,5.823,0,0,1-5.713-3.359h6.548v-2.169h-7.118a9.423,9.423,0,0,1-.057-1.029c0-.173.005-.342.015-.508h7.16v-2.17h-6.771a5.859,5.859,0,0,1,5.963-4.012,8.857,8.857,0,0,1,3.561.7l.729-2.642a10.444,10.444,0,0,0-4.424-.809c-4.613,0-8.256,2.492-9.362,6.762h-4.526v2.17h4.2c-.012.22-.019.443-.019.671,0,.294.011.583.031.865h-4.209v2.169h4.579c1.072,3.78,4.243,6.109,8.877,6.109a11.5,11.5,0,0,0,4.693-.809l-.539-2.618A9.266,9.266,0,0,1,608.557,237.567Z" transform="translate(-594.038 -221.57)" fill="#f8dc4a"/></g></g><g transform="translate(72.091 118.996)"><path d="M523.426,228.316a18.246,18.246,0,1,1-18.383-18.106A18.248,18.248,0,0,1,523.426,228.316Z" transform="translate(-486.935 -208.938)" fill="#f9ca35"/><path d="M521.859,229.278A15.736,15.736,0,1,1,506,213.662,15.733,15.733,0,0,1,521.859,229.278Z" transform="translate(-487.879 -209.881)" fill="#c99204"/><path d="M487.733,228.992a18.252,18.252,0,0,1,26-16.66,18.249,18.249,0,1,0-16.3,32.645A18.243,18.243,0,0,1,487.733,228.992Z" transform="translate(-486.935 -208.938)" fill="#b78523"/><path d="M521.37,229.582a14.949,14.949,0,1,1-15.062-14.836A14.951,14.951,0,0,1,521.37,229.582Z" transform="translate(-488.175 -210.178)" fill="#e8af2e"/><path d="M523.469,237.6a15.494,15.494,0,0,1-15.656,8.464,14.95,14.95,0,0,0,13.165-25.915A15.5,15.5,0,0,1,523.469,237.6Z" transform="translate(-492.643 -211.654)" fill="#b78523"/><g transform="translate(3.151)"><path d="M497.749,218.392a8.417,8.417,0,0,1-.131-4.23,8.489,8.489,0,0,1,3.584-2.248,7.881,7.881,0,0,1-4.227.132,7.726,7.726,0,0,1-2.248-3.586,7.544,7.544,0,0,1,.084,4.318c-.427.8-2.2,1.752-3.538,2.159a4.251,4.251,0,0,1,6.477,3.456Z" transform="translate(-491.272 -208.459)" fill="#fff"/><g transform="translate(7.721 6.158)"><path d="M504.2,220.469a1.513,1.513,0,0,1,1.229-2.306,2.814,2.814,0,0,1-1.506.047,2.77,2.77,0,0,1-.8-1.276,2.689,2.689,0,0,1,.03,1.535,2.537,2.537,0,0,1-1.261.769,1.515,1.515,0,0,1,2.306,1.231Z" transform="translate(-501.898 -216.934)" fill="#fff"/></g><g transform="translate(1.495 10.494)"><path d="M496.529,227.81a2.1,2.1,0,0,1,1.706-3.2,3.9,3.9,0,0,1-2.089.065,3.826,3.826,0,0,1-1.11-1.773,3.732,3.732,0,0,1,.041,2.133,3.517,3.517,0,0,1-1.748,1.067,2.1,2.1,0,0,1,3.2,1.707Z" transform="translate(-493.329 -222.902)" fill="#fff"/></g></g><g transform="translate(7.351 9.656)"><g transform="translate(0 0.511)"><g transform="translate(4.07)"><path d="M516.275,239.935a11.2,11.2,0,0,1-4.575.789c-5.628,0-9.046-3.524-9.046-8.914,0-5.837,4.05-9.359,9.468-9.359a10.162,10.162,0,0,1,4.311.788l-.711,2.577a8.6,8.6,0,0,0-3.47-.684c-3.6,0-6.206,2.261-6.206,6.521,0,3.892,2.288,6.39,6.179,6.39a9.046,9.046,0,0,0,3.523-.658Z" transform="translate(-502.654 -222.451)" fill="#c99204"/></g><g transform="translate(0 6.591)"><rect width="14.453" height="2.114" fill="#c99204"/><rect width="14.453" height="2.115" transform="translate(0 3.614)" fill="#c99204"/></g></g><path d="M511.4,237.341a5.677,5.677,0,0,1-5.57-3.273h6.383v-2.113h-6.938a8.976,8.976,0,0,1-.056-1c0-.168.006-.333.014-.5h6.98v-2.114h-6.6a5.71,5.71,0,0,1,5.813-3.911,8.6,8.6,0,0,1,3.472.684l.709-2.577a10.173,10.173,0,0,0-4.312-.789c-4.5,0-8.046,2.429-9.125,6.593h-4.411v2.114h4.09c-.012.215-.02.432-.02.656,0,.285.012.567.031.844h-4.1v2.113h4.463c1.045,3.684,4.137,5.954,8.652,5.954a11.2,11.2,0,0,0,4.576-.788l-.525-2.55A9.043,9.043,0,0,1,511.4,237.341Z" transform="translate(-497.244 -221.748)" fill="#f8dc4a"/></g></g><g transform="translate(86.694 85.142)"><path d="M543.526,181.724a18.246,18.246,0,1,1-18.384-18.107A18.247,18.247,0,0,1,543.526,181.724Z" transform="translate(-507.033 -162.345)" fill="#f9ca35"/><path d="M541.959,182.686A15.737,15.737,0,1,1,526.1,167.07,15.735,15.735,0,0,1,541.959,182.686Z" transform="translate(-507.977 -163.289)" fill="#c99204"/><path d="M507.832,182.4a18.251,18.251,0,0,1,26-16.66,18.249,18.249,0,1,0-16.3,32.645A18.243,18.243,0,0,1,507.832,182.4Z" transform="translate(-507.033 -162.345)" fill="#b78523"/><path d="M541.469,182.99a14.949,14.949,0,1,1-15.063-14.836A14.951,14.951,0,0,1,541.469,182.99Z" transform="translate(-508.274 -163.586)" fill="#e8af2e"/><path d="M543.568,191a15.5,15.5,0,0,1-15.656,8.464,14.95,14.95,0,0,0,13.165-25.915A15.492,15.492,0,0,1,543.568,191Z" transform="translate(-512.741 -165.062)" fill="#b78523"/><g transform="translate(3.152)"><path d="M517.848,171.8a8.427,8.427,0,0,1-.131-4.23,8.476,8.476,0,0,1,3.584-2.248,7.893,7.893,0,0,1-4.228.132,7.731,7.731,0,0,1-2.248-3.587,7.55,7.55,0,0,1,.083,4.318c-.428.8-2.2,1.753-3.538,2.159a7.922,7.922,0,0,1,4.229-.131A7.864,7.864,0,0,1,517.848,171.8Z" transform="translate(-511.371 -161.867)" fill="#fff"/><g transform="translate(7.721 6.157)"><path d="M524.3,173.877a1.512,1.512,0,0,1,1.229-2.306,2.821,2.821,0,0,1-1.506.047,2.758,2.758,0,0,1-.8-1.277,2.684,2.684,0,0,1,.03,1.536,2.544,2.544,0,0,1-1.26.769,1.514,1.514,0,0,1,2.307,1.23Z" transform="translate(-521.997 -170.341)" fill="#fff"/></g><g transform="translate(1.495 10.494)"><path d="M516.629,181.217a4.141,4.141,0,0,1-.065-2.09,4.187,4.187,0,0,1,1.77-1.11,3.9,3.9,0,0,1-2.088.065,3.813,3.813,0,0,1-1.111-1.772,3.752,3.752,0,0,1,.042,2.133,3.526,3.526,0,0,1-1.748,1.067,2.1,2.1,0,0,1,3.2,1.706Z" transform="translate(-513.429 -176.31)" fill="#fff"/></g></g><g transform="translate(7.352 9.656)"><g transform="translate(0 0.51)"><g transform="translate(4.07)"><path d="M536.374,193.343a11.2,11.2,0,0,1-4.576.789c-5.627,0-9.045-3.524-9.045-8.914,0-5.837,4.05-9.36,9.467-9.36a10.19,10.19,0,0,1,4.312.788l-.711,2.577a8.582,8.582,0,0,0-3.47-.684c-3.6,0-6.206,2.261-6.206,6.521,0,3.892,2.288,6.39,6.18,6.39a9.05,9.05,0,0,0,3.523-.658Z" transform="translate(-522.753 -175.858)" fill="#c99204"/></g><g transform="translate(0 6.592)"><rect width="14.453" height="2.114" fill="#c99204"/><rect width="14.453" height="2.115" transform="translate(0 3.613)" fill="#c99204"/></g></g><path d="M531.5,190.748a5.676,5.676,0,0,1-5.569-3.273h6.383v-2.114H525.37a9.151,9.151,0,0,1-.055-1c0-.168.006-.333.014-.5h6.98v-2.115h-6.6a5.71,5.71,0,0,1,5.813-3.91,8.582,8.582,0,0,1,3.471.684l.71-2.578a10.188,10.188,0,0,0-4.312-.788c-4.5,0-8.047,2.429-9.125,6.592h-4.411v2.115h4.089c-.012.214-.019.431-.019.655,0,.286.012.567.031.844h-4.1v2.114h4.463c1.045,3.684,4.137,5.955,8.652,5.955a11.2,11.2,0,0,0,4.576-.788l-.525-2.551A9.033,9.033,0,0,1,531.5,190.748Z" transform="translate(-517.343 -175.156)" fill="#f8dc4a"/></g></g><g transform="translate(124.767 65.479)"><path d="M601.694,157.8A21.132,21.132,0,1,1,580.4,136.834,21.134,21.134,0,0,1,601.694,157.8Z" transform="translate(-559.43 -135.361)" fill="#f9ca35"/><path d="M599.879,158.92a18.226,18.226,0,1,1-18.364-18.087A18.223,18.223,0,0,1,599.879,158.92Z" transform="translate(-560.523 -136.454)" fill="#c99204"/><path d="M560.353,158.588a21.139,21.139,0,0,1,30.11-19.294A21.136,21.136,0,1,0,571.585,177.1,21.127,21.127,0,0,1,560.353,158.588Z" transform="translate(-559.43 -135.361)" fill="#b78523"/><path d="M599.311,159.271a17.314,17.314,0,1,1-17.445-17.183A17.316,17.316,0,0,1,599.311,159.271Z" transform="translate(-560.867 -136.797)" fill="#e8af2e"/><path d="M601.743,168.553a17.943,17.943,0,0,1-18.132,9.8,17.315,17.315,0,0,0,15.248-30.013A17.943,17.943,0,0,1,601.743,168.553Z" transform="translate(-566.041 -138.507)" fill="#b78523"/><g transform="translate(3.65)"><path d="M571.955,146.311c-.483-1.589-.515-4.219-.152-4.9a9.827,9.827,0,0,1,4.151-2.6c-1.585.484-4.109.573-4.9.153-.825-.441-2.121-2.567-2.6-4.153.5,1.628.578,4.1.1,5-.5.932-2.55,2.031-4.1,2.5,1.587-.484,4.121-.567,4.9-.152S571.471,144.722,571.955,146.311Z" transform="translate(-564.453 -134.807)" fill="#fff"/><g transform="translate(8.942 7.131)"><path d="M579.431,148.716a3.476,3.476,0,0,1-.055-1.745,3.511,3.511,0,0,1,1.479-.926,3.261,3.261,0,0,1-1.744.055,3.214,3.214,0,0,1-.926-1.479,3.119,3.119,0,0,1,.035,1.779,2.944,2.944,0,0,1-1.459.892,1.753,1.753,0,0,1,2.671,1.424Z" transform="translate(-576.76 -144.621)" fill="#fff"/></g><g transform="translate(1.731 12.155)"><path d="M570.541,157.219a4.8,4.8,0,0,1-.074-2.421,4.84,4.84,0,0,1,2.05-1.285,4.5,4.5,0,0,1-2.419.074,4.413,4.413,0,0,1-1.286-2.051,4.334,4.334,0,0,1,.048,2.47,4.084,4.084,0,0,1-2.025,1.237,2.431,2.431,0,0,1,3.706,1.976Z" transform="translate(-566.835 -151.535)" fill="#fff"/></g></g><g transform="translate(8.515 11.183)"><g transform="translate(0 0.592)"><g transform="translate(4.714)"><path d="M593.412,171.262a12.964,12.964,0,0,1-5.3.915c-6.517,0-10.476-4.081-10.476-10.324,0-6.761,4.691-10.841,10.965-10.841a11.8,11.8,0,0,1,4.994.913l-.823,2.986a9.926,9.926,0,0,0-4.02-.793c-4.174,0-7.188,2.619-7.188,7.553,0,4.508,2.65,7.4,7.157,7.4a10.491,10.491,0,0,0,4.08-.761Z" transform="translate(-577.636 -151.012)" fill="#c99204"/></g><g transform="translate(0 7.633)"><rect width="16.739" height="2.449" fill="#c99204"/><rect width="16.739" height="2.451" transform="translate(0 4.185)" fill="#c99204"/></g></g><path d="M587.76,168.258c-3.146,0-5.383-1.41-6.451-3.791H588.7v-2.448h-8.036a10.946,10.946,0,0,1-.064-1.163c0-.194.007-.385.017-.574H588.7v-2.448h-7.645c.993-2.973,3.518-4.529,6.733-4.529a9.978,9.978,0,0,1,4.021.791l.822-2.984a11.8,11.8,0,0,0-4.994-.914c-5.208,0-9.322,2.813-10.569,7.637h-5.11v2.448H576.7c-.013.25-.022.5-.022.759,0,.331.014.657.036.978h-4.751v2.448h5.17c1.209,4.265,4.791,6.9,10.021,6.9a12.965,12.965,0,0,0,5.3-.913l-.609-2.954A10.453,10.453,0,0,1,587.76,168.258Z" transform="translate(-571.37 -150.197)" fill="#f8dc4a"/></g></g><g transform="translate(119.565 195.305)"><path d="M594.536,336.478a21.132,21.132,0,1,1-21.29-20.971A21.132,21.132,0,0,1,594.536,336.478Z" transform="translate(-552.272 -314.034)" fill="#f9ca35"/><path d="M592.722,337.593a18.226,18.226,0,1,1-18.364-18.087A18.222,18.222,0,0,1,592.722,337.593Z" transform="translate(-553.365 -315.127)" fill="#c99204"/><path d="M553.2,337.262a21.139,21.139,0,0,1,30.11-19.294,21.135,21.135,0,1,0-18.877,37.808A21.128,21.128,0,0,1,553.2,337.262Z" transform="translate(-552.272 -314.034)" fill="#b78523"/><path d="M592.155,337.945a17.315,17.315,0,1,1-17.446-17.183A17.317,17.317,0,0,1,592.155,337.945Z" transform="translate(-553.709 -315.471)" fill="#e8af2e"/><path d="M594.586,347.227a17.941,17.941,0,0,1-18.132,9.8A17.314,17.314,0,0,0,591.7,327.016,17.943,17.943,0,0,1,594.586,347.227Z" transform="translate(-558.883 -317.181)" fill="#b78523"/><g transform="translate(3.65)"><path d="M564.8,324.984c-.483-1.588-.515-4.219-.151-4.9a9.808,9.808,0,0,1,4.151-2.6c-1.587.484-4.11.571-4.9.153-.825-.441-2.12-2.567-2.6-4.154.5,1.628.578,4.1.1,5-.5.932-2.55,2.031-4.1,2.5,1.586-.484,4.121-.568,4.9-.153S564.314,323.4,564.8,324.984Z" transform="translate(-557.296 -313.48)" fill="#fff"/><g transform="translate(8.942 7.132)"><path d="M572.274,327.389a1.752,1.752,0,0,1,1.424-2.671,3.262,3.262,0,0,1-1.745.055,3.208,3.208,0,0,1-.927-1.478,3.1,3.1,0,0,1,.036,1.779,2.943,2.943,0,0,1-1.459.891,1.753,1.753,0,0,1,2.671,1.424Z" transform="translate(-569.603 -323.295)" fill="#fff"/></g><g transform="translate(1.731 12.155)"><path d="M563.384,335.892a2.434,2.434,0,0,1,1.976-3.706,4.493,4.493,0,0,1-2.42.074,4.416,4.416,0,0,1-1.287-2.051,4.337,4.337,0,0,1,.049,2.47,4.083,4.083,0,0,1-2.026,1.237,2.432,2.432,0,0,1,3.706,1.976Z" transform="translate(-559.678 -330.208)" fill="#fff"/></g></g><g transform="translate(8.515 11.183)"><g transform="translate(0 0.591)"><g transform="translate(4.713)"><path d="M586.254,349.935a12.958,12.958,0,0,1-5.3.915c-6.516,0-10.476-4.081-10.476-10.324,0-6.76,4.692-10.841,10.964-10.841a11.79,11.79,0,0,1,4.995.913l-.823,2.986a9.937,9.937,0,0,0-4.02-.793c-4.172,0-7.186,2.619-7.186,7.553,0,4.509,2.649,7.4,7.156,7.4a10.477,10.477,0,0,0,4.081-.762Z" transform="translate(-570.478 -329.685)" fill="#c99204"/></g><g transform="translate(0 7.634)"><rect width="16.74" height="2.448" fill="#c99204"/><rect width="16.74" height="2.451" transform="translate(0 4.185)" fill="#c99204"/></g></g><path d="M580.6,346.932c-3.146,0-5.383-1.41-6.451-3.791h7.392v-2.448h-8.036a10.587,10.587,0,0,1-.065-1.164c0-.195.007-.384.017-.573h8.084v-2.448H573.9c.992-2.973,3.518-4.53,6.733-4.53a9.947,9.947,0,0,1,4.02.792l.822-2.985a11.806,11.806,0,0,0-4.994-.913c-5.208,0-9.321,2.813-10.569,7.637H564.8v2.448h4.738c-.014.249-.023.5-.023.759,0,.331.014.658.036.979H564.8v2.448h5.171c1.208,4.264,4.791,6.9,10.02,6.9a12.971,12.971,0,0,0,5.3-.914l-.609-2.953A10.471,10.471,0,0,1,580.6,346.932Z" transform="translate(-564.213 -328.871)" fill="#f8dc4a"/></g></g><g transform="translate(55.526 191.126)"><path d="M503.948,329.39a19.9,19.9,0,1,1-20.055-19.754A19.906,19.906,0,0,1,503.948,329.39Z" transform="translate(-464.138 -308.25)" fill="#f9ca35"/><path d="M502.239,330.441a17.167,17.167,0,1,1-17.3-17.038A17.164,17.164,0,0,1,502.239,330.441Z" transform="translate(-465.168 -309.28)" fill="#c99204"/><path d="M465.009,330.128a19.912,19.912,0,0,1,28.36-18.175,19.908,19.908,0,1,0-17.78,35.613A19.9,19.9,0,0,1,465.009,330.128Z" transform="translate(-464.138 -308.25)" fill="#b78523"/><path d="M501.7,330.77a16.308,16.308,0,1,1-16.432-16.185A16.309,16.309,0,0,1,501.7,330.77Z" transform="translate(-465.491 -309.603)" fill="#e8af2e"/><path d="M503.993,339.514a16.9,16.9,0,0,1-17.078,9.232,16.308,16.308,0,0,0,14.361-28.269A16.9,16.9,0,0,1,503.993,339.514Z" transform="translate(-470.365 -311.213)" fill="#b78523"/><g transform="translate(3.438)"><path d="M475.937,318.564a9.171,9.171,0,0,1-.145-4.616,9.278,9.278,0,0,1,3.91-2.453c-1.493.457-3.871.541-4.611.145-.779-.414-2-2.417-2.454-3.912.466,1.533.545,3.86.092,4.709-.468.877-2.4,1.912-3.86,2.356,1.5-.456,3.881-.534,4.613-.142S475.481,317.067,475.937,318.564Z" transform="translate(-468.87 -307.728)" fill="#fff"/><g transform="translate(8.424 6.717)"><path d="M482.979,320.829a3.263,3.263,0,0,1-.053-1.643,3.3,3.3,0,0,1,1.392-.873,3.069,3.069,0,0,1-1.641.052,3,3,0,0,1-.873-1.393,2.936,2.936,0,0,1,.032,1.677,2.763,2.763,0,0,1-1.373.839,1.652,1.652,0,0,1,2.516,1.341Z" transform="translate(-480.463 -316.972)" fill="#fff"/></g><g transform="translate(1.63 11.448)"><path d="M474.6,328.838a2.292,2.292,0,0,1,1.861-3.491,4.246,4.246,0,0,1-2.278.071,4.149,4.149,0,0,1-1.212-1.934,4.082,4.082,0,0,1,.046,2.328,3.854,3.854,0,0,1-1.908,1.163,2.291,2.291,0,0,1,3.491,1.862Z" transform="translate(-471.113 -323.484)" fill="#fff"/></g></g><g transform="translate(8.019 10.534)"><g transform="translate(0 0.556)"><g transform="translate(4.441)"><path d="M496.145,342.066a12.22,12.22,0,0,1-4.991.861c-6.138,0-9.867-3.844-9.867-9.725,0-6.367,4.418-10.211,10.327-10.211a11.1,11.1,0,0,1,4.7.861l-.775,2.81a9.408,9.408,0,0,0-3.786-.746c-3.929,0-6.769,2.468-6.769,7.115,0,4.245,2.5,6.969,6.741,6.969a9.884,9.884,0,0,0,3.844-.717Z" transform="translate(-481.287 -322.991)" fill="#c99204"/></g><g transform="translate(0 7.19)"><rect width="15.768" height="2.307" fill="#c99204"/><rect width="15.768" height="2.308" transform="translate(0 3.942)" fill="#c99204"/></g></g><path d="M490.822,339.235c-2.962,0-5.07-1.327-6.075-3.571h6.962v-2.306h-7.568a9.86,9.86,0,0,1-.061-1.093c0-.185.007-.365.015-.542h7.614v-2.307h-7.2a6.229,6.229,0,0,1,6.341-4.265,9.4,9.4,0,0,1,3.786.745l.775-2.81a11.1,11.1,0,0,0-4.7-.86c-4.906,0-8.779,2.649-9.956,7.191H475.94v2.307H480.4c-.012.235-.02.472-.02.714,0,.314.012.621.033.921H475.94v2.306h4.869c1.139,4.019,4.513,6.5,9.44,6.5a12.22,12.22,0,0,0,4.99-.859l-.573-2.783A9.882,9.882,0,0,1,490.822,339.235Z" transform="translate(-475.384 -322.226)" fill="#f8dc4a"/></g></g><g transform="translate(72.521 158.563)"><path d="M521.363,281.325a16.918,16.918,0,1,1-17.046-16.79A16.921,16.921,0,0,1,521.363,281.325Z" transform="translate(-487.527 -263.357)" fill="#f9ca35"/><path d="M519.911,282.218a14.591,14.591,0,1,1-14.7-14.48A14.588,14.588,0,0,1,519.911,282.218Z" transform="translate(-488.402 -264.233)" fill="#c99204"/><path d="M488.268,281.952a16.921,16.921,0,0,1,24.1-15.447,16.92,16.92,0,1,0-15.112,30.266A16.908,16.908,0,0,1,488.268,281.952Z" transform="translate(-487.527 -263.357)" fill="#b78523"/><path d="M519.455,282.5a13.861,13.861,0,1,1-13.965-13.756A13.859,13.859,0,0,1,519.455,282.5Z" transform="translate(-488.677 -264.507)" fill="#e8af2e"/><path d="M521.4,289.928a14.363,14.363,0,0,1-14.515,7.847,13.861,13.861,0,0,0,12.206-24.028A14.364,14.364,0,0,1,521.4,289.928Z" transform="translate(-492.82 -265.876)" fill="#b78523"/><g transform="translate(2.923)"><path d="M497.556,272.123a7.8,7.8,0,0,1-.123-3.924,7.872,7.872,0,0,1,3.323-2.084,7.314,7.314,0,0,1-3.919.123,7.171,7.171,0,0,1-2.085-3.324,7,7,0,0,1,.078,4c-.4.745-2.041,1.625-3.28,2a3.944,3.944,0,0,1,6.006,3.2Z" transform="translate(-491.55 -262.914)" fill="#fff"/><g transform="translate(7.158 5.708)"><path d="M503.541,274.047a1.4,1.4,0,0,1,1.139-2.138,2.613,2.613,0,0,1-1.4.043,2.535,2.535,0,0,1-.741-1.184,2.5,2.5,0,0,1,.027,1.426,2.351,2.351,0,0,1-1.168.712,1.4,1.4,0,0,1,2.14,1.14Z" transform="translate(-501.401 -270.769)" fill="#fff"/></g><g transform="translate(1.386 9.73)"><path d="M496.423,280.854a1.949,1.949,0,0,1,1.583-2.967,3.607,3.607,0,0,1-1.937.061,3.538,3.538,0,0,1-1.03-1.643,3.462,3.462,0,0,1,.039,1.978,3.274,3.274,0,0,1-1.62.99,1.945,1.945,0,0,1,2.966,1.582Z" transform="translate(-493.457 -276.305)" fill="#fff"/></g></g><g transform="translate(6.816 8.952)"><g transform="translate(0 0.473)"><g transform="translate(3.775)"><path d="M514.732,292.1a10.409,10.409,0,0,1-4.243.731c-5.217,0-8.387-3.267-8.387-8.265,0-5.412,3.755-8.679,8.778-8.679a9.428,9.428,0,0,1,4,.732l-.658,2.389a7.993,7.993,0,0,0-3.218-.634c-3.339,0-5.754,2.1-5.754,6.047,0,3.609,2.122,5.924,5.729,5.924a8.414,8.414,0,0,0,3.268-.61Z" transform="translate(-502.103 -275.885)" fill="#c99204"/></g><g transform="translate(0 6.112)"><rect width="13.402" height="1.961" fill="#c99204"/><rect width="13.402" height="1.961" transform="translate(0 3.351)" fill="#c99204"/></g></g><path d="M510.209,289.692a5.263,5.263,0,0,1-5.165-3.035h5.918V284.7h-6.433a8.4,8.4,0,0,1-.052-.93c0-.157.006-.309.013-.46h6.471v-1.961h-6.12a5.294,5.294,0,0,1,5.389-3.624,8,8,0,0,1,3.219.633l.658-2.389a9.439,9.439,0,0,0-4-.732c-4.169,0-7.461,2.253-8.461,6.112h-4.09v1.961h3.791c-.009.2-.017.4-.017.607,0,.267.01.527.028.783h-3.8v1.96H501.7c.969,3.416,3.836,5.521,8.023,5.521a10.361,10.361,0,0,0,4.241-.731l-.487-2.364A8.4,8.4,0,0,1,510.209,289.692Z" transform="translate(-497.086 -275.234)" fill="#f8dc4a"/></g></g><g transform="translate(148.69 155.864)"><path d="M632.324,280.946a19.985,19.985,0,1,1-20.137-19.831A19.987,19.987,0,0,1,632.324,280.946Z" transform="translate(-592.355 -259.723)" fill="#f9ca35"/><path d="M630.609,282a17.235,17.235,0,1,1-17.367-17.1A17.237,17.237,0,0,1,630.609,282Z" transform="translate(-593.39 -260.757)" fill="#c99204"/><path d="M593.231,281.687A19.992,19.992,0,0,1,621.7,263.439a19.987,19.987,0,1,0-17.849,35.754A19.977,19.977,0,0,1,593.231,281.687Z" transform="translate(-592.355 -259.723)" fill="#b78523"/><path d="M630.07,282.334a16.373,16.373,0,1,1-16.5-16.248A16.371,16.371,0,0,1,630.07,282.334Z" transform="translate(-593.714 -261.082)" fill="#e8af2e"/><path d="M632.369,291.111a16.965,16.965,0,0,1-17.144,9.27A16.373,16.373,0,0,0,629.642,272,16.966,16.966,0,0,1,632.369,291.111Z" transform="translate(-598.608 -262.698)" fill="#b78523"/><g transform="translate(3.453)"><path d="M604.2,270.078a9.226,9.226,0,0,1-.145-4.634,9.3,9.3,0,0,1,3.926-2.462c-1.5.457-3.886.542-4.631.145-.78-.415-2-2.426-2.462-3.927.469,1.538.546,3.876.093,4.729-.469.878-2.412,1.919-3.875,2.364,1.5-.457,3.9-.536,4.632-.143S603.745,268.576,604.2,270.078Z" transform="translate(-597.107 -259.199)" fill="#fff"/><g transform="translate(8.457 6.743)"><path d="M611.271,272.352a1.658,1.658,0,0,1,1.346-2.526,3.054,3.054,0,0,1-1.648.05,3,3,0,0,1-.876-1.4,2.945,2.945,0,0,1,.032,1.684,2.783,2.783,0,0,1-1.379.842,1.658,1.658,0,0,1,2.525,1.347Z" transform="translate(-608.746 -268.479)" fill="#fff"/></g><g transform="translate(1.637 11.494)"><path d="M602.865,280.392a2.3,2.3,0,0,1,1.868-3.5,4.294,4.294,0,0,1-2.287.07,4.181,4.181,0,0,1-1.216-1.941,4.1,4.1,0,0,1,.047,2.337,3.894,3.894,0,0,1-1.916,1.168,2.3,2.3,0,0,1,3.505,1.869Z" transform="translate(-599.36 -275.018)" fill="#fff"/></g></g><g transform="translate(12.445 8.8)"><g transform="translate(0 0.584)"><path d="M623.517,272.946l-.821,3.739a6.769,6.769,0,0,0-3.582-.582c-2.731.408-2.633,3.409-1.72,6.866.928,3.518-.446,5.575-1.755,6.736h8.772v4.12H609.483v-2.67a5.556,5.556,0,0,0,3.576-6.768c-1.466-6.368-.823-9.425,2.717-11.339A9.133,9.133,0,0,1,623.517,272.946Z" transform="translate(-609.483 -272.113)" fill="#c99204"/><rect width="12.005" height="2.914" transform="translate(0.413 9.886)" fill="#c99204"/></g><g transform="translate(0.583)"><path d="M624.32,272.143l-.822,3.738a6.764,6.764,0,0,0-3.581-.582c-2.734.408-2.633,3.41-1.72,6.867.929,3.517-.447,5.576-1.754,6.736h8.771v4.12H610.286v-2.67a5.558,5.558,0,0,0,3.577-6.768c-1.466-6.367-.822-9.424,2.717-11.337A9.13,9.13,0,0,1,624.32,272.143Z" transform="translate(-610.286 -271.31)" fill="#f8dc4a"/><rect width="12.005" height="2.913" transform="translate(0.412 9.886)" fill="#f8dc4a"/></g></g></g></g><g transform="translate(62.643 286.76)"><path d="M498.372,524.566,475.758,444.19l48.349-.458,48.352-.457c-7.03,26.931-13.731,52.607-20.761,79.536C534.387,528.156,516.4,529.763,498.372,524.566Z" transform="translate(-474.431 -440.42)" fill="#658339" fill-rule="evenodd"/><path d="M498.372,524.843l-22.614-80.376,18.964-.179c1.282,17.449,4.239,41.029,10.937,53.821,8.527,16.286,33.976,22.194,47.294,20.175l-1.254,4.805C534.387,528.433,516.4,530.039,498.372,524.843Z" transform="translate(-474.431 -440.697)" fill="#597535" fill-rule="evenodd"/><path d="M573.249,439.346l-97.7.924a1.632,1.632,0,0,0-1.613,1.644l.07,7.444a1.708,1.708,0,0,0,1.645,1.612,428.747,428.747,0,0,0,97.7-.924,1.709,1.709,0,0,0,1.612-1.643q-.036-3.723-.07-7.445A1.631,1.631,0,0,0,573.249,439.346Z" transform="translate(-473.932 -439.346)" fill="#435929" fill-rule="evenodd"/></g></g><g transform="translate(1191.492 696.426)"><g transform="translate(33.082 94.439)"><g transform="translate(35.408 21.015)"><path d="M124.766,438.984s-.126-.807-.344-2.223c-.243-1.442-.591-3.5-1.009-5.971-.193-1.276-.4-2.668-.53-4.19a34.2,34.2,0,0,1-.135-4.848,22.1,22.1,0,0,1,.812-5.262,16.216,16.216,0,0,1,2.348-5.083c.451-.664,1.043-1.386,1.615-2.082.581-.66,1.142-1.3,1.737-1.9,1.166-1.224,2.355-2.324,3.483-3.4s2.21-2.1,3.176-3.124a32.041,32.041,0,0,0,2.567-3,21.214,21.214,0,0,0,1.759-2.824q.312-.681.584-1.269c.139-.411.266-.788.381-1.127a11.679,11.679,0,0,0,.408-1.63c.081-.381.124-.583.124-.583s-.015.206-.045.594a11.653,11.653,0,0,1-.189,1.69c-.07.362-.148.764-.233,1.2-.131.429-.271.888-.421,1.383a22.4,22.4,0,0,1-1.426,3.172,34.019,34.019,0,0,1-2.233,3.456c-.852,1.185-1.808,2.375-2.785,3.595s-1.992,2.465-2.927,3.751c-.482.636-.918,1.306-1.354,1.955-.392.646-.788,1.261-1.178,2.035l-.293.551-.037.07-.009.015c.028-.047-.076.133.06-.1l-.012.033-.047.129-.093.259c-.121.345-.261.682-.366,1.029a15.465,15.465,0,0,0-.444,2.12,17.689,17.689,0,0,0-.066,4.275,29.2,29.2,0,0,0,.676,4.09c.287,1.306.654,2.553.99,3.708.741,2.38,1.359,4.361,1.793,5.751l.66,2.228Z" transform="translate(-119.108 -369.662)" fill="#556f32"/><path d="M124.822,403.438s-.028-.682-.078-1.872c-.014-.3-.028-.626-.044-.982-.034-.307-.072-.64-.113-.993a24.427,24.427,0,0,0-.34-2.465c-.142-.935-.359-1.94-.614-3-.23-1.07-.571-2.181-.886-3.349-.682-2.32-1.5-4.809-2.289-7.348-.39-1.276-.772-2.559-1.107-3.859-.351-1.279-.624-2.593-.876-3.852-.22-1.278-.433-2.508-.522-3.708a32.19,32.19,0,0,1-.184-3.357c-.063-1.036.07-1.99.089-2.823a18.1,18.1,0,0,1,.217-2.146c.161-1.175.253-1.846.253-1.846s-.028.679-.078,1.872a17.889,17.889,0,0,0-.014,2.133c.058.824.014,1.753.171,2.745a29.738,29.738,0,0,0,.477,3.171c.188,1.115.5,2.248.823,3.414.353,1.154.722,2.336,1.175,3.5.432,1.173.916,2.344,1.408,3.512,1,2.335,2.046,4.662,2.983,6.949.447,1.161.912,2.266,1.277,3.393.388,1.106.732,2.175,1,3.215a29.789,29.789,0,0,1,.692,2.925q.137.686.255,1.273c.049.357.1.684.137.979l.253,1.846Z" transform="translate(-117.752 -361.835)" fill="#556f32"/></g><g transform="translate(23.331 0)"><path d="M126.906,345.7a12.888,12.888,0,1,1-12.985-12.79A12.887,12.887,0,0,1,126.906,345.7Z" transform="translate(-101.131 -332.912)" fill="#f9ca35"/><path d="M125.8,346.383a11.115,11.115,0,1,1-11.2-11.031A11.114,11.114,0,0,1,125.8,346.383Z" transform="translate(-101.798 -333.579)" fill="#c99204"/><path d="M101.694,346.181a12.892,12.892,0,0,1,18.362-11.768,12.89,12.89,0,1,0-11.512,23.058A12.887,12.887,0,0,1,101.694,346.181Z" transform="translate(-101.131 -332.912)" fill="#b78523"/><path d="M125.453,346.6a10.559,10.559,0,1,1-10.639-10.477A10.56,10.56,0,0,1,125.453,346.6Z" transform="translate(-102.007 -333.789)" fill="#e8af2e"/><path d="M126.936,352.257a10.942,10.942,0,0,1-11.058,5.977,10.559,10.559,0,0,0,9.3-18.3A10.945,10.945,0,0,1,126.936,352.257Z" transform="translate(-105.163 -334.832)" fill="#b78523"/><g transform="translate(8.128 5.127)"><path d="M118.294,339.969v1.775a2.19,2.19,0,0,1,.957.837l.137-.956h2.494v3.995h-2.63a1.792,1.792,0,0,0-1.9-1.895.956.956,0,0,0-1.008.871c0,1.674,5.755,1.3,5.755,5.106,0,2.492-2.05,3.279-3.808,3.314v1.758h-2.408v-2.237a4.956,4.956,0,0,1-.887-.633l-.189,1.026h-2.492v-4.116H115c0,1.366,1.417,1.606,2.066,1.639.494,0,1.246-.137,1.246-.836,0-1.264-5.549-1.042-5.549-4.866a3.229,3.229,0,0,1,3.124-3.348v-1.434Z" transform="translate(-112.318 -339.969)" fill="#c99204"/></g><g transform="translate(8.41 4.951)"><path d="M118.683,339.727V341.5a2.17,2.17,0,0,1,.956.835l.137-.955h2.493v4h-2.63a1.792,1.792,0,0,0-1.894-1.9.959.959,0,0,0-1.01.872c0,1.673,5.756,1.3,5.756,5.106,0,2.493-2.049,3.279-3.808,3.312v1.759h-2.409V352.3a5.012,5.012,0,0,1-.886-.631l-.19,1.024h-2.492v-4.116h2.682c0,1.367,1.416,1.606,2.064,1.64.5,0,1.248-.137,1.248-.837,0-1.264-5.551-1.041-5.551-4.866a3.231,3.231,0,0,1,3.124-3.349v-1.433Z" transform="translate(-112.706 -339.727)" fill="#f8dc4a"/></g><g transform="translate(0.948 2.64)"><path d="M107.011,343.561a5.929,5.929,0,0,1-.093-2.989,5.979,5.979,0,0,1,2.532-1.587,5.572,5.572,0,0,1-2.986.092,5.437,5.437,0,0,1-1.588-2.532,5.336,5.336,0,0,1,.06,3.05,5.054,5.054,0,0,1-2.5,1.524,5.6,5.6,0,0,1,2.987-.092A5.57,5.57,0,0,1,107.011,343.561Z" transform="translate(-102.436 -336.546)" fill="#fff"/><g transform="translate(5.452 4.348)"><path d="M111.568,345.027a1.069,1.069,0,0,1,.868-1.628,1.988,1.988,0,0,1-1.063.032,1.937,1.937,0,0,1-.564-.9,1.917,1.917,0,0,1,.02,1.086,1.8,1.8,0,0,1-.89.543,1.069,1.069,0,0,1,1.628.868Z" transform="translate(-109.94 -342.53)" fill="#fff"/></g><g transform="translate(1.056 7.413)"><path d="M106.148,350.214a1.484,1.484,0,0,1,1.2-2.26,2.77,2.77,0,0,1-1.475.046,2.7,2.7,0,0,1-.784-1.251,2.646,2.646,0,0,1,.03,1.506,2.5,2.5,0,0,1-1.235.754,2.735,2.735,0,0,1,1.475-.047A2.76,2.76,0,0,1,106.148,350.214Z" transform="translate(-103.889 -346.748)" fill="#fff"/></g></g></g><g transform="translate(16.213 39.812)"><path d="M117.109,400.495a12.888,12.888,0,1,1-12.985-12.79A12.887,12.887,0,0,1,117.109,400.495Z" transform="translate(-91.334 -387.704)" fill="#f9ca35"/><path d="M116,401.175a11.115,11.115,0,1,1-11.2-11.031A11.113,11.113,0,0,1,116,401.175Z" transform="translate(-92.001 -388.371)" fill="#c99204"/><path d="M91.9,400.973A12.892,12.892,0,0,1,110.259,389.2a12.89,12.89,0,1,0-11.512,23.058A12.887,12.887,0,0,1,91.9,400.973Z" transform="translate(-91.334 -387.704)" fill="#b78523"/><path d="M115.656,401.388a10.559,10.559,0,1,1-10.639-10.477A10.56,10.56,0,0,1,115.656,401.388Z" transform="translate(-92.21 -388.581)" fill="#e8af2e"/><path d="M117.139,407.05a10.943,10.943,0,0,1-11.058,5.976,10.559,10.559,0,0,0,9.3-18.3A10.946,10.946,0,0,1,117.139,407.05Z" transform="translate(-95.366 -389.624)" fill="#b78523"/><g transform="translate(8.129 5.127)"><path d="M108.5,394.761v1.775a2.2,2.2,0,0,1,.958.837l.136-.956h2.494v3.995h-2.63a1.792,1.792,0,0,0-1.9-1.9.956.956,0,0,0-1.008.871c0,1.674,5.755,1.3,5.755,5.106,0,2.492-2.05,3.278-3.808,3.314v1.758H106.09V407.33a4.986,4.986,0,0,1-.887-.632l-.189,1.025h-2.492v-4.116h2.68c0,1.366,1.417,1.606,2.066,1.639.494,0,1.247-.137,1.247-.836,0-1.264-5.55-1.042-5.55-4.866a3.229,3.229,0,0,1,3.124-3.348v-1.434Z" transform="translate(-102.522 -394.761)" fill="#c99204"/></g><g transform="translate(8.41 4.952)"><path d="M108.886,394.519V396.3a2.166,2.166,0,0,1,.956.835l.137-.955h2.493v4h-2.63a1.791,1.791,0,0,0-1.894-1.9.958.958,0,0,0-1.01.871c0,1.673,5.756,1.3,5.756,5.106,0,2.493-2.049,3.279-3.808,3.312v1.759h-2.409v-2.237a5.034,5.034,0,0,1-.886-.631l-.19,1.024h-2.492v-4.116h2.682c0,1.367,1.416,1.606,2.064,1.64.5,0,1.248-.137,1.248-.837,0-1.264-5.55-1.041-5.55-4.866a3.231,3.231,0,0,1,3.124-3.349v-1.433Z" transform="translate(-102.909 -394.519)" fill="#f8dc4a"/></g><g transform="translate(0.948 2.64)"><path d="M97.214,398.353a5.929,5.929,0,0,1-.093-2.989,5.984,5.984,0,0,1,2.532-1.587,5.572,5.572,0,0,1-2.986.092,5.437,5.437,0,0,1-1.588-2.532,5.33,5.33,0,0,1,.06,3.05,5.051,5.051,0,0,1-2.5,1.524,5.6,5.6,0,0,1,2.987-.092A5.57,5.57,0,0,1,97.214,398.353Z" transform="translate(-92.639 -391.338)" fill="#fff"/><g transform="translate(5.453 4.348)"><path d="M101.772,399.819a1.069,1.069,0,0,1,.868-1.628,1.989,1.989,0,0,1-1.063.033,1.944,1.944,0,0,1-.564-.9,1.917,1.917,0,0,1,.02,1.086,1.792,1.792,0,0,1-.889.543,1.068,1.068,0,0,1,1.628.868Z" transform="translate(-100.144 -397.322)" fill="#fff"/></g><g transform="translate(1.056 7.413)"><path d="M96.351,405.006a1.484,1.484,0,0,1,1.2-2.26,2.77,2.77,0,0,1-1.475.046,2.7,2.7,0,0,1-.784-1.251,2.646,2.646,0,0,1,.03,1.506,2.5,2.5,0,0,1-1.235.754,2.734,2.734,0,0,1,1.475-.047A2.759,2.759,0,0,1,96.351,405.006Z" transform="translate(-94.092 -401.54)" fill="#fff"/></g></g></g><g transform="translate(50.682 22.935)"><path d="M166.354,378.164a13.79,13.79,0,1,1-13.895-13.686A13.79,13.79,0,0,1,166.354,378.164Z" transform="translate(-138.773 -364.477)" fill="#f9ca35"/><path d="M165.171,378.892a11.894,11.894,0,1,1-11.985-11.8A11.893,11.893,0,0,1,165.171,378.892Z" transform="translate(-139.487 -365.191)" fill="#c99204"/><path d="M139.375,378.677a13.795,13.795,0,0,1,19.649-12.593,13.793,13.793,0,1,0-12.319,24.673A13.788,13.788,0,0,1,139.375,378.677Z" transform="translate(-138.773 -364.477)" fill="#b78523"/><path d="M164.8,379.12a11.3,11.3,0,1,1-11.385-11.212A11.3,11.3,0,0,1,164.8,379.12Z" transform="translate(-139.71 -365.415)" fill="#e8af2e"/><path d="M166.386,385.179a11.711,11.711,0,0,1-11.833,6.4,11.3,11.3,0,0,0,9.95-19.586A11.711,11.711,0,0,1,166.386,385.179Z" transform="translate(-143.087 -366.531)" fill="#b78523"/><g transform="translate(8.697 5.487)"><path d="M157.139,372.029v1.9a2.335,2.335,0,0,1,1.024.9l.145-1.023h2.668v4.275h-2.813a1.919,1.919,0,0,0-2.029-2.029,1.024,1.024,0,0,0-1.079.932c0,1.792,6.159,1.389,6.159,5.465,0,2.667-2.193,3.507-4.075,3.544v1.883h-2.577v-2.394a5.229,5.229,0,0,1-.95-.676l-.2,1.1h-2.667v-4.4h2.869c0,1.461,1.516,1.718,2.21,1.753.531,0,1.334-.146,1.334-.9,0-1.351-5.937-1.114-5.937-5.207a3.453,3.453,0,0,1,3.342-3.581v-1.536Z" transform="translate(-150.743 -372.029)" fill="#c99204"/></g><g transform="translate(8.999 5.299)"><path d="M157.554,371.77v1.9a2.325,2.325,0,0,1,1.023.894l.146-1.022h2.668v4.276h-2.814a1.917,1.917,0,0,0-2.028-2.028,1.024,1.024,0,0,0-1.079.932c0,1.79,6.159,1.387,6.159,5.463,0,2.669-2.192,3.51-4.075,3.544v1.883h-2.578v-2.394a5.349,5.349,0,0,1-.949-.675l-.2,1.1h-2.667v-4.4h2.869c0,1.463,1.516,1.718,2.21,1.755.53,0,1.334-.147,1.334-.9,0-1.352-5.938-1.113-5.938-5.208a3.456,3.456,0,0,1,3.342-3.582V371.77Z" transform="translate(-151.158 -371.77)" fill="#f8dc4a"/></g><g transform="translate(1.014 2.825)"><path d="M145.063,375.873a6.34,6.34,0,0,1-.1-3.2,6.41,6.41,0,0,1,2.708-1.7,5.96,5.96,0,0,1-3.2.1,5.835,5.835,0,0,1-1.7-2.71,5.72,5.72,0,0,1,.065,3.263,5.4,5.4,0,0,1-2.674,1.631,5.994,5.994,0,0,1,3.2-.1A5.964,5.964,0,0,1,145.063,375.873Z" transform="translate(-140.169 -368.366)" fill="#fff"/><g transform="translate(5.835 4.652)"><path d="M149.942,377.442a1.144,1.144,0,0,1,.929-1.743,2.113,2.113,0,0,1-1.137.036,2.089,2.089,0,0,1-.6-.966,2.058,2.058,0,0,1,.023,1.163,1.939,1.939,0,0,1-.953.581,1.144,1.144,0,0,1,1.743.929Z" transform="translate(-148.199 -374.769)" fill="#fff"/></g><g transform="translate(1.129 7.932)"><path d="M144.141,382.992a1.587,1.587,0,0,1,1.289-2.418,2.957,2.957,0,0,1-1.579.048,2.91,2.91,0,0,1-.84-1.338,2.811,2.811,0,0,1,.033,1.612,2.688,2.688,0,0,1-1.322.807,1.586,1.586,0,0,1,2.418,1.29Z" transform="translate(-141.723 -379.283)" fill="#fff"/></g></g></g><g transform="translate(0 77.336)"><path d="M93.462,524.566,70.848,444.19l48.349-.458,48.352-.457c-7.03,26.931-13.731,52.607-20.761,79.536C129.477,528.156,111.494,529.763,93.462,524.566Z" transform="translate(-69.521 -440.42)" fill="#658339" fill-rule="evenodd"/><path d="M93.462,524.843,70.848,444.466l18.964-.179c1.282,17.449,4.239,41.029,10.937,53.821,8.526,16.286,33.976,22.194,47.294,20.175l-1.254,4.805C129.477,528.433,111.494,530.039,93.462,524.843Z" transform="translate(-69.521 -440.697)" fill="#597535" fill-rule="evenodd"/><path d="M168.339,439.346l-97.7.924a1.632,1.632,0,0,0-1.613,1.644l.07,7.444a1.708,1.708,0,0,0,1.645,1.612,428.747,428.747,0,0,0,97.7-.924,1.708,1.708,0,0,0,1.612-1.643l-.07-7.445A1.631,1.631,0,0,0,168.339,439.346Z" transform="translate(-69.022 -439.346)" fill="#435929" fill-rule="evenodd"/></g></g><g transform="translate(0 0)"><path d="M87.859,262.069l-20.072-5.4,18.705-14.552c2.048-1.391-.249-8.4-5.144-16.2l7.767-5.277c.672-.458.551-1.807-.269-3.014s-2.031-1.817-2.7-1.36l-7.767,5.279c-5.448-7.423-11.119-12.136-13.165-10.744L63.363,211.9a16.045,16.045,0,0,0-23.287-6.242c-6.841,4.648-15.12,19.155-11.85,26.954l-4.238,2.5C22.041,236.431,26,245.65,32.83,255.7s13.944,17.126,15.892,15.8l8.092-6.3,29.992,1.567c.016,4.07,2.379,7.623,5.992,8.521l4.4-18.406C93.475,256.036,89.664,258.271,87.859,262.069Zm-9.964-40.192-.463.315-.331-.451c-4.435-6.04-8.711-9.818-11.015-10.6C68.068,211.113,72.88,215.047,77.895,221.876Zm6.39,17.654S70.479,232.809,66.3,213.009A61.63,61.63,0,0,0,84.285,239.53ZM61.81,210.374a15.5,15.5,0,0,1,1.033,1.781l.034.071-.563.334-.28-.559A15.3,15.3,0,0,0,61,210.219a15.591,15.591,0,0,0-9.6-6.493A15.6,15.6,0,0,1,61.81,210.374ZM30.643,231.228l-.235-.666c-2.261-6.409,5.88-18.789,10.835-22.156A12.243,12.243,0,0,1,50.82,206.6a12.217,12.217,0,0,0-8.769,1.961c-4.955,3.367-13.1,15.749-10.835,22.157l.05.144Zm1.12-.7c-2.122-6.012,5.566-18.053,10.613-21.484A11.935,11.935,0,0,1,58.9,212.35a11.793,11.793,0,0,1,.918,1.632Zm24.865,34.091L48.4,271.022c-.2.134-.53.1-.977-.089a.47.47,0,0,0,.169-.066l8.233-6.406,30.757,1.607v.113ZM87.368,262.6,65.7,256.776l19.628-15.269c1.507-1.026-.275-7.456-5.279-15.429l-.3-.475,8.23-5.593c.294-.2.275-1.18-.422-2.2a3.436,3.436,0,0,0-1.086-1.056c.3-.194,1.2.185,1.893,1.208s.716,2.005.424,2.205l-8.231,5.593.3.476c5,7.975,6.785,14.4,5.279,15.429l-19.626,15.27L87.4,262.545Zm5.006,11.964a6.769,6.769,0,0,1-.766-.326L95.658,257.3a6.514,6.514,0,0,1,.831.054Z" transform="translate(-23.492 -202.94)" fill="#658339"/><path d="M125.491,303.463s1.817,2.18,1.453,6.539c0,0-.363,1.817,2,2.271a2.443,2.443,0,0,0,2.361-2.361S131.849,305.824,125.491,303.463Z" transform="translate(-51.378 -230.422)" fill="#56b797"/><path d="M139.49,304.8s1.817,2.18,1.453,6.539c0,0-.363,1.817,2,2.271a2.443,2.443,0,0,0,2.361-2.361S145.848,307.157,139.49,304.8Z" transform="translate(-55.205 -230.787)" fill="#56b797"/><path d="M151.824,322.8s1.817,2.18,1.453,6.539c0,0-.363,1.817,2,2.271a2.443,2.443,0,0,0,2.361-2.361S158.182,325.157,151.824,322.8Z" transform="translate(-58.577 -235.708)" fill="#56b797"/><path d="M150.823,298.463s1.817,2.18,1.453,6.539c0,0-.363,1.817,2,2.271a2.443,2.443,0,0,0,2.361-2.361S157.181,300.825,150.823,298.463Z" transform="translate(-58.303 -229.055)" fill="#56b797"/><path d="M126.588,290.161s2.252,1.726,2.858,6.059c0,0,.045,1.851,2.449,1.774a2.443,2.443,0,0,0,1.783-2.823S133.31,291.064,126.588,290.161Z" transform="translate(-51.678 -226.786)" fill="#56b797"/><path d="M135.176,282.813s2.708.845,4.769,4.7c0,0,.68,1.723,2.911.823a2.444,2.444,0,0,0,.7-3.265S141.8,281.346,135.176,282.813Z" transform="translate(-54.025 -224.683)" fill="#56b797"/><path d="M137.98,321.174s1.4,2.47.254,6.694c0,0-.684,1.722,1.558,2.593a2.443,2.443,0,0,0,2.747-1.9S143.81,324.639,137.98,321.174Z" transform="translate(-54.792 -235.264)" fill="#56b797"/></g></g><g transform="translate(1316.469 639.751)"><g transform="translate(45.253 107.068)"><path d="M315.574,400.12c3.484-10.811,6.437-15.825,7.276-29.669-3.171-7.993-12.425-17.085-25.877-26.3,10.242,4.2,21.667,15.177,26.058,21.237.073-6.466-.974-30.38-8.822-48.322,12.48,19.815,14.17,51.765,11.844,63.11,7.036-5.275,21.242-13.891,34.012-15.058-17.774,5.561-28.939,12.74-35.291,20.388-6.517,23.9-17.2,42.39,4.277,90.391l-11.1,3.2c-15.353-34.316-10.279-54.226-3.742-74.71" transform="translate(-268.49 -284.533)" fill="#556f32" fill-rule="evenodd"/><g transform="translate(24.623)"><path d="M330.387,291.509a19.364,19.364,0,1,1-19.51-19.215A19.364,19.364,0,0,1,330.387,291.509Z" transform="translate(-291.659 -272.293)" fill="#f9ca35"/><path d="M328.725,292.532A16.7,16.7,0,1,1,311.9,275.958,16.7,16.7,0,0,1,328.725,292.532Z" transform="translate(-292.661 -273.295)" fill="#c99204"/><path d="M292.506,292.228a19.373,19.373,0,0,1,27.589-17.682,19.368,19.368,0,1,0-17.3,34.646A19.362,19.362,0,0,1,292.506,292.228Z" transform="translate(-291.659 -272.293)" fill="#b78523"/><path d="M328.2,292.852a15.865,15.865,0,1,1-15.985-15.742A15.865,15.865,0,0,1,328.2,292.852Z" transform="translate(-292.976 -273.61)" fill="#e8af2e"/><path d="M330.431,301.36a16.443,16.443,0,0,1-16.615,8.982,15.866,15.866,0,0,0,13.972-27.5A16.445,16.445,0,0,1,330.431,301.36Z" transform="translate(-297.717 -275.176)" fill="#b78523"/><g transform="translate(12.214 7.703)"><path d="M317.448,282.894v2.668a3.282,3.282,0,0,1,1.438,1.258l.2-1.436h3.747v6h-3.951a2.693,2.693,0,0,0-2.848-2.848,1.438,1.438,0,0,0-1.514,1.309c0,2.515,8.647,1.951,8.647,7.673,0,3.745-3.08,4.926-5.722,4.977v2.643h-3.618V301.78a7.376,7.376,0,0,1-1.333-.951l-.283,1.541h-3.745v-6.185H312.5c0,2.053,2.128,2.414,3.1,2.463.745,0,1.873-.2,1.873-1.256,0-1.9-8.338-1.566-8.338-7.312a4.851,4.851,0,0,1,4.695-5.03v-2.157Z" transform="translate(-308.469 -282.894)" fill="#c99204"/></g><g transform="translate(12.637 7.438)"><path d="M318.032,282.53v2.67a3.265,3.265,0,0,1,1.436,1.256l.2-1.436h3.746v6h-3.951a2.692,2.692,0,0,0-2.847-2.848,1.438,1.438,0,0,0-1.516,1.309c0,2.514,8.648,1.949,8.648,7.671,0,3.747-3.079,4.928-5.722,4.977v2.643h-3.62v-3.361a7.543,7.543,0,0,1-1.332-.947l-.285,1.538h-3.744v-6.183h4.029c0,2.053,2.129,2.412,3.1,2.464.744,0,1.874-.206,1.874-1.258,0-1.9-8.339-1.564-8.339-7.312a4.853,4.853,0,0,1,4.695-5.031V282.53Z" transform="translate(-309.051 -282.53)" fill="#f8dc4a"/></g><g transform="translate(1.424 3.966)"><path d="M300.493,288.293a8.918,8.918,0,0,1-.139-4.49,8.989,8.989,0,0,1,3.8-2.385c-1.453.442-3.768.524-4.488.139-.756-.4-1.942-2.349-2.386-3.8.454,1.491.53,3.756.09,4.583-.455.851-2.337,1.858-3.754,2.29,1.455-.442,3.775-.519,4.488-.139S300.049,286.837,300.493,288.293Z" transform="translate(-293.619 -277.752)" fill="#fff"/><g transform="translate(8.194 6.533)"><path d="M307.342,290.5a1.608,1.608,0,0,1,1.306-2.447,1.606,1.606,0,0,1-2.447-1.306,2.873,2.873,0,0,1,.032,1.633,2.714,2.714,0,0,1-1.337.815,1.605,1.605,0,0,1,2.446,1.3Z" transform="translate(-304.896 -286.743)" fill="#fff"/></g><g transform="translate(1.586 11.138)"><path d="M299.2,298.288a2.229,2.229,0,0,1,1.81-3.4,4.15,4.15,0,0,1-2.217.069,4.076,4.076,0,0,1-1.179-1.88,3.962,3.962,0,0,1,.046,2.263,3.764,3.764,0,0,1-1.856,1.133,2.228,2.228,0,0,1,3.4,1.811Z" transform="translate(-295.802 -293.081)" fill="#fff"/></g></g></g><g transform="translate(84.72 61.25)"><path d="M408.183,373.369a16.907,16.907,0,1,1-17.035-16.78A16.906,16.906,0,0,1,408.183,373.369Z" transform="translate(-374.369 -356.589)" fill="#f9ca35"/><path d="M406.734,374.26a14.582,14.582,0,1,1-14.695-14.473A14.582,14.582,0,0,1,406.734,374.26Z" transform="translate(-375.244 -357.464)" fill="#c99204"/><path d="M375.108,374a16.914,16.914,0,0,1,24.089-15.44,16.911,16.911,0,1,0-15.1,30.252A16.905,16.905,0,0,1,375.108,374Z" transform="translate(-374.369 -356.589)" fill="#b78523"/><path d="M406.277,374.54a13.852,13.852,0,1,1-13.957-13.745A13.85,13.85,0,0,1,406.277,374.54Z" transform="translate(-375.518 -357.739)" fill="#e8af2e"/><path d="M408.224,381.969a14.359,14.359,0,0,1-14.508,7.842,13.853,13.853,0,0,0,12.2-24.013A14.359,14.359,0,0,1,408.224,381.969Z" transform="translate(-379.658 -359.107)" fill="#b78523"/><g transform="translate(10.664 6.726)"><path d="M396.887,365.846v2.329a2.874,2.874,0,0,1,1.255,1.1l.179-1.254h3.271v5.242h-3.45a2.352,2.352,0,0,0-2.487-2.487,1.256,1.256,0,0,0-1.323,1.142c0,2.2,7.551,1.7,7.551,6.7,0,3.269-2.688,4.3-5,4.344v2.309h-3.16v-2.935a6.434,6.434,0,0,1-1.164-.83l-.248,1.346h-3.27v-5.4h3.518c0,1.792,1.859,2.107,2.71,2.15.651,0,1.636-.179,1.636-1.1,0-1.657-7.28-1.365-7.28-6.384a4.235,4.235,0,0,1,4.1-4.391v-1.883Z" transform="translate(-389.045 -365.846)" fill="#c99204"/></g><g transform="translate(11.034 6.496)"><path d="M397.4,365.529v2.33a2.84,2.84,0,0,1,1.253,1.1l.179-1.254H402.1v5.242H398.65a2.35,2.35,0,0,0-2.486-2.487,1.257,1.257,0,0,0-1.323,1.144c0,2.194,7.552,1.7,7.552,6.7,0,3.271-2.688,4.3-5,4.345v2.309h-3.161v-2.935a6.509,6.509,0,0,1-1.163-.828l-.249,1.345h-3.27v-5.4h3.518c0,1.793,1.859,2.106,2.71,2.152.65,0,1.636-.18,1.636-1.1,0-1.657-7.281-1.365-7.281-6.384a4.239,4.239,0,0,1,4.1-4.393v-1.88Z" transform="translate(-389.555 -365.529)" fill="#f8dc4a"/></g><g transform="translate(1.244 3.463)"><path d="M382.082,370.559a3.94,3.94,0,0,1,3.2-6,7.317,7.317,0,0,1-3.919.122,7.165,7.165,0,0,1-2.084-3.323,7,7,0,0,1,.08,4c-.4.745-2.041,1.625-3.278,2a3.939,3.939,0,0,1,6,3.2Z" transform="translate(-376.081 -361.355)" fill="#fff"/><g transform="translate(7.154 5.705)"><path d="M388.063,372.484a1.4,1.4,0,0,1,1.14-2.138,2.591,2.591,0,0,1-1.4.044,2.553,2.553,0,0,1-.741-1.184,2.513,2.513,0,0,1,.028,1.426,2.379,2.379,0,0,1-1.168.711,2.616,2.616,0,0,1,1.4-.042A2.572,2.572,0,0,1,388.063,372.484Z" transform="translate(-385.927 -369.206)" fill="#fff"/></g><g transform="translate(1.384 9.726)"><path d="M380.951,379.287a1.947,1.947,0,0,1,1.581-2.966,3.606,3.606,0,0,1-1.936.06,3.556,3.556,0,0,1-1.03-1.641,3.453,3.453,0,0,1,.041,1.976,3.286,3.286,0,0,1-1.621.989,1.945,1.945,0,0,1,2.965,1.582Z" transform="translate(-377.986 -374.74)" fill="#fff"/></g></g></g><g transform="translate(0 38.42)"><path d="M289.038,340.684a15.633,15.633,0,1,1-15.752-15.514A15.633,15.633,0,0,1,289.038,340.684Z" transform="translate(-257.772 -325.169)" fill="#f9ca35"/><path d="M287.7,341.509a13.483,13.483,0,1,1-13.586-13.381A13.481,13.481,0,0,1,287.7,341.509Z" transform="translate(-258.581 -325.978)" fill="#c99204"/><path d="M258.455,341.264a15.641,15.641,0,0,1,22.274-14.275,15.637,15.637,0,1,0-13.965,27.972A15.635,15.635,0,0,1,258.455,341.264Z" transform="translate(-257.772 -325.169)" fill="#b78523"/><path d="M287.274,341.768a12.809,12.809,0,1,1-12.906-12.711A12.81,12.81,0,0,1,287.274,341.768Z" transform="translate(-258.835 -326.232)" fill="#e8af2e"/><path d="M289.074,348.637a13.275,13.275,0,0,1-13.415,7.25,12.808,12.808,0,0,0,11.281-22.2A13.277,13.277,0,0,1,289.074,348.637Z" transform="translate(-262.662 -327.497)" fill="#b78523"/><g transform="translate(9.86 6.219)"><path d="M278.592,333.728v2.154a2.656,2.656,0,0,1,1.161,1.017l.164-1.16h3.025v4.846h-3.189a2.174,2.174,0,0,0-2.3-2.3,1.161,1.161,0,0,0-1.223,1.056c0,2.031,6.981,1.575,6.981,6.2,0,3.024-2.486,3.976-4.62,4.019v2.133h-2.921v-2.715a5.975,5.975,0,0,1-1.078-.767l-.228,1.244h-3.023v-4.993h3.252c0,1.657,1.72,1.948,2.507,1.988.6,0,1.512-.166,1.512-1.014,0-1.533-6.732-1.264-6.732-5.9a3.918,3.918,0,0,1,3.791-4.061v-1.741Z" transform="translate(-271.342 -333.728)" fill="#c99204"/></g><g transform="translate(10.201 6.006)"><path d="M279.063,333.435v2.154a2.643,2.643,0,0,1,1.16,1.014l.166-1.16h3.024v4.848h-3.19a2.172,2.172,0,0,0-2.3-2.3,1.161,1.161,0,0,0-1.223,1.056c0,2.03,6.982,1.574,6.982,6.194,0,3.026-2.486,3.978-4.62,4.019V351.4h-2.922v-2.714a6.087,6.087,0,0,1-1.077-.766l-.228,1.242h-3.024v-4.992h3.252c0,1.658,1.719,1.947,2.505,1.989.6,0,1.513-.166,1.513-1.016,0-1.533-6.732-1.264-6.732-5.9a3.917,3.917,0,0,1,3.791-4.061v-1.74Z" transform="translate(-271.812 -333.435)" fill="#f8dc4a"/></g><g transform="translate(1.149 3.203)"><path d="M264.9,338.087a7.208,7.208,0,0,1-.112-3.626,7.268,7.268,0,0,1,3.071-1.925,6.77,6.77,0,0,1-3.624.113,6.627,6.627,0,0,1-1.926-3.072,6.469,6.469,0,0,1,.073,3.7,6.121,6.121,0,0,1-3.031,1.849,6.794,6.794,0,0,1,3.624-.111A6.756,6.756,0,0,1,264.9,338.087Z" transform="translate(-259.354 -329.577)" fill="#fff"/><g transform="translate(6.615 5.275)"><path d="M270.433,339.866a1.3,1.3,0,0,1,1.054-1.976,2.4,2.4,0,0,1-1.29.041,2.369,2.369,0,0,1-.685-1.094,2.313,2.313,0,0,1,.025,1.317,2.185,2.185,0,0,1-1.079.659,1.3,1.3,0,0,1,1.975,1.054Z" transform="translate(-268.458 -336.837)" fill="#fff"/></g><g transform="translate(1.28 8.992)"><path d="M263.857,346.157a1.8,1.8,0,0,1,1.461-2.742,3.352,3.352,0,0,1-1.789.055,3.273,3.273,0,0,1-.953-1.518,3.207,3.207,0,0,1,.037,1.828,3.044,3.044,0,0,1-1.5.915,1.8,1.8,0,0,1,2.742,1.462Z" transform="translate(-261.115 -341.952)" fill="#fff"/></g></g></g><g transform="translate(62.874 65.032)"><path d="M364.827,372.964a10.263,10.263,0,1,1-10.34-10.185A10.262,10.262,0,0,1,364.827,372.964Z" transform="translate(-344.303 -362.063)" fill="#f9ca35"/><path d="M363.946,373.5a8.851,8.851,0,1,1-8.918-8.784A8.851,8.851,0,0,1,363.946,373.5Z" transform="translate(-344.833 -362.594)" fill="#c99204"/><path d="M344.751,373.344a10.265,10.265,0,0,1,14.622-9.37,10.264,10.264,0,1,0-9.168,18.361A10.258,10.258,0,0,1,344.751,373.344Z" transform="translate(-344.303 -362.063)" fill="#b78523"/><path d="M363.671,373.675a8.408,8.408,0,1,1-8.472-8.344A8.409,8.409,0,0,1,363.671,373.675Z" transform="translate(-345 -362.761)" fill="#e8af2e"/><path d="M364.851,378.183a8.715,8.715,0,0,1-8.805,4.761,8.409,8.409,0,0,0,7.4-14.576A8.713,8.713,0,0,1,364.851,378.183Z" transform="translate(-347.513 -363.591)" fill="#b78523"/><g transform="translate(1.773)"><path d="M350.385,367.381a4.727,4.727,0,0,1-.074-2.38,4.785,4.785,0,0,1,2.016-1.264,4.44,4.44,0,0,1-2.379.075,4.351,4.351,0,0,1-1.264-2.018,4.252,4.252,0,0,1,.047,2.429,4.027,4.027,0,0,1-1.99,1.215,2.39,2.39,0,0,1,3.643,1.943Z" transform="translate(-346.742 -361.794)" fill="#fff"/><g transform="translate(4.343 3.463)"><path d="M354.016,368.549a1.683,1.683,0,0,1-.027-.847,1.7,1.7,0,0,1,.718-.45,1.593,1.593,0,0,1-.846.026,1.542,1.542,0,0,1-.45-.719,1.516,1.516,0,0,1,.017.865,1.436,1.436,0,0,1-.708.432.852.852,0,0,1,1.3.692Z" transform="translate(-352.719 -366.56)" fill="#fff"/></g><g transform="translate(0.841 5.903)"><path d="M349.7,372.679a1.183,1.183,0,0,1,.96-1.8,2.187,2.187,0,0,1-1.175.036,2.159,2.159,0,0,1-.624-1,2.107,2.107,0,0,1,.024,1.2,1.991,1.991,0,0,1-.984.6,1.18,1.18,0,0,1,1.8.961Z" transform="translate(-347.899 -369.918)" fill="#fff"/></g></g><g transform="translate(4.134 5.431)"><g transform="translate(0 0.287)"><g transform="translate(2.29)"><path d="M360.805,379.5a6.29,6.29,0,0,1-2.574.445,4.7,4.7,0,0,1-5.088-5.014,5.014,5.014,0,0,1,5.325-5.264,5.738,5.738,0,0,1,2.425.443l-.4,1.45a4.843,4.843,0,0,0-1.953-.385,3.32,3.32,0,0,0-3.489,3.669,3.272,3.272,0,0,0,3.475,3.593,5.1,5.1,0,0,0,1.981-.369Z" transform="translate(-353.144 -369.664)" fill="#c99204"/></g><g transform="translate(0 3.708)"><rect width="8.13" height="1.189" fill="#c99204"/><rect width="8.13" height="1.19" transform="translate(0 2.032)" fill="#c99204"/></g></g><path d="M358.06,378.04a3.194,3.194,0,0,1-3.132-1.841h3.59v-1.189h-3.9a5.245,5.245,0,0,1-.03-.563c0-.1,0-.188.008-.28h3.925v-1.189h-3.712a3.212,3.212,0,0,1,3.269-2.2,4.842,4.842,0,0,1,1.952.384l.4-1.449a5.732,5.732,0,0,0-2.425-.444,4.985,4.985,0,0,0-5.133,3.708h-2.481v1.189h2.3c-.007.121-.011.243-.011.368,0,.161.007.32.017.474h-2.307V376.2h2.51a4.652,4.652,0,0,0,4.867,3.349,6.3,6.3,0,0,0,2.573-.443l-.3-1.436A5.069,5.069,0,0,1,358.06,378.04Z" transform="translate(-350.1 -369.269)" fill="#f8dc4a"/></g></g><g transform="translate(24.419 65.241)"><path d="M311.386,372.968a10,10,0,1,1-10.079-9.927A10,10,0,0,1,311.386,372.968Z" transform="translate(-291.38 -362.343)" fill="#f9ca35"/><path d="M310.528,373.5a8.628,8.628,0,1,1-8.693-8.562A8.627,8.627,0,0,1,310.528,373.5Z" transform="translate(-291.897 -362.861)" fill="#c99204"/><path d="M291.817,373.339A10.007,10.007,0,0,1,306.07,364.2a10,10,0,1,0-8.936,17.9A10,10,0,0,1,291.817,373.339Z" transform="translate(-291.38 -362.343)" fill="#b78523"/><path d="M310.258,373.662A8.2,8.2,0,1,1,302,365.528,8.2,8.2,0,0,1,310.258,373.662Z" transform="translate(-292.06 -363.023)" fill="#e8af2e"/><path d="M311.409,378.055a8.493,8.493,0,0,1-8.583,4.641,8.2,8.2,0,0,0,7.218-14.208A8.493,8.493,0,0,1,311.409,378.055Z" transform="translate(-294.509 -363.833)" fill="#b78523"/><g transform="translate(1.728)"><path d="M297.309,367.527a2.331,2.331,0,0,1,1.893-3.552,4.328,4.328,0,0,1-2.318.072,4.251,4.251,0,0,1-1.233-1.966,4.135,4.135,0,0,1,.047,2.367,3.919,3.919,0,0,1-1.939,1.184,2.33,2.33,0,0,1,3.551,1.894Z" transform="translate(-293.758 -362.081)" fill="#fff"/><g transform="translate(4.233 3.376)"><path d="M300.847,368.666a.83.83,0,0,1,.674-1.265,1.541,1.541,0,0,1-.826.026,1.513,1.513,0,0,1-.437-.7,1.476,1.476,0,0,1,.016.843,1.4,1.4,0,0,1-.691.421.83.83,0,0,1,1.264.674Z" transform="translate(-299.583 -366.727)" fill="#fff"/></g><g transform="translate(0.819 5.754)"><path d="M296.64,372.69a1.152,1.152,0,0,1,.935-1.754,2.135,2.135,0,0,1-1.145.036,2.086,2.086,0,0,1-.609-.971,2.052,2.052,0,0,1,.023,1.169,1.928,1.928,0,0,1-.958.586,1.152,1.152,0,0,1,1.755.935Z" transform="translate(-294.885 -370)" fill="#fff"/></g></g><g transform="translate(4.031 5.294)"><g transform="translate(0 0.28)"><g transform="translate(2.232)"><path d="M307.465,379.338a6.135,6.135,0,0,1-2.509.433A4.584,4.584,0,0,1,300,374.884a4.887,4.887,0,0,1,5.19-5.132,5.586,5.586,0,0,1,2.364.432l-.39,1.413a4.712,4.712,0,0,0-1.9-.376,3.236,3.236,0,0,0-3.4,3.576,3.19,3.19,0,0,0,3.388,3.5,4.97,4.97,0,0,0,1.931-.36Z" transform="translate(-299.998 -369.752)" fill="#c99204"/></g><g transform="translate(0 3.614)"><rect width="7.924" height="1.159" fill="#c99204"/><rect width="7.924" height="1.159" transform="translate(0 1.981)" fill="#c99204"/></g></g><path d="M304.791,377.916a3.113,3.113,0,0,1-3.054-1.795h3.5v-1.159h-3.8a5,5,0,0,1-.031-.551c0-.092,0-.182.007-.272h3.827v-1.158h-3.619a3.13,3.13,0,0,1,3.187-2.144,4.709,4.709,0,0,1,1.9.375l.389-1.413a5.583,5.583,0,0,0-2.365-.432,4.858,4.858,0,0,0-5,3.615h-2.419v1.158h2.242c-.007.118-.011.238-.011.36,0,.157.007.311.017.463h-2.248v1.159h2.447a4.535,4.535,0,0,0,4.743,3.264,6.134,6.134,0,0,0,2.508-.432l-.288-1.4A4.946,4.946,0,0,1,304.791,377.916Z" transform="translate(-297.032 -369.367)" fill="#f8dc4a"/></g></g><g transform="translate(32.426 46.679)"><path d="M322.406,347.424a10,10,0,1,1-10.079-9.928A10,10,0,0,1,322.406,347.424Z" transform="translate(-302.399 -336.798)" fill="#f9ca35"/><path d="M321.547,347.952a8.628,8.628,0,1,1-8.693-8.562A8.627,8.627,0,0,1,321.547,347.952Z" transform="translate(-302.916 -337.316)" fill="#c99204"/><path d="M302.836,347.794a10.006,10.006,0,0,1,14.252-9.134,10,10,0,1,0-8.936,17.9A10,10,0,0,1,302.836,347.794Z" transform="translate(-302.399 -336.798)" fill="#b78523"/><path d="M321.278,348.117a8.2,8.2,0,1,1-8.258-8.134A8.2,8.2,0,0,1,321.278,348.117Z" transform="translate(-303.079 -337.478)" fill="#e8af2e"/><path d="M322.429,352.511a8.492,8.492,0,0,1-8.583,4.64,8.2,8.2,0,0,0,7.217-14.208A8.493,8.493,0,0,1,322.429,352.511Z" transform="translate(-305.528 -338.288)" fill="#b78523"/><g transform="translate(1.728)"><path d="M308.328,341.982a2.331,2.331,0,0,1,1.894-3.552,4.332,4.332,0,0,1-2.319.073,4.247,4.247,0,0,1-1.232-1.967,4.133,4.133,0,0,1,.046,2.367,3.919,3.919,0,0,1-1.939,1.184,2.331,2.331,0,0,1,3.551,1.894Z" transform="translate(-304.777 -336.536)" fill="#fff"/><g transform="translate(4.233 3.377)"><path d="M311.867,343.122a.83.83,0,0,1,.674-1.265,1.539,1.539,0,0,1-.826.025,1.514,1.514,0,0,1-.438-.7,1.475,1.475,0,0,1,.017.842,1.389,1.389,0,0,1-.691.421.83.83,0,0,1,1.264.675Z" transform="translate(-310.603 -341.183)" fill="#fff"/></g><g transform="translate(0.819 5.755)"><path d="M307.659,347.145a1.153,1.153,0,0,1,.936-1.754,2.137,2.137,0,0,1-1.146.036,2.1,2.1,0,0,1-.609-.971,2.044,2.044,0,0,1,.023,1.168,1.931,1.931,0,0,1-.959.586,1.151,1.151,0,0,1,1.755.935Z" transform="translate(-305.904 -344.456)" fill="#fff"/></g></g><g transform="translate(4.031 5.294)"><g transform="translate(0 0.28)"><g transform="translate(2.232)"><path d="M318.485,353.793a6.14,6.14,0,0,1-2.509.433,4.584,4.584,0,0,1-4.958-4.887,4.886,4.886,0,0,1,5.189-5.131,5.571,5.571,0,0,1,2.364.432l-.389,1.413a4.717,4.717,0,0,0-1.9-.376,3.236,3.236,0,0,0-3.4,3.576,3.19,3.19,0,0,0,3.388,3.5,4.984,4.984,0,0,0,1.932-.36Z" transform="translate(-311.018 -344.208)" fill="#c99204"/></g><g transform="translate(0 3.614)"><rect width="7.924" height="1.159" fill="#c99204"/><rect width="7.924" height="1.16" transform="translate(0 1.98)" fill="#c99204"/></g></g><path d="M315.81,352.371a3.112,3.112,0,0,1-3.053-1.795h3.5v-1.159h-3.8a4.978,4.978,0,0,1-.031-.549c0-.092,0-.183.007-.272h3.826v-1.159h-3.618a3.129,3.129,0,0,1,3.187-2.144,4.721,4.721,0,0,1,1.9.375l.389-1.413a5.6,5.6,0,0,0-2.365-.432,4.858,4.858,0,0,0-5,3.615H308.33V348.6h2.242c-.007.118-.011.237-.011.36,0,.156.007.311.017.462H308.33v1.159h2.447a4.535,4.535,0,0,0,4.744,3.264,6.138,6.138,0,0,0,2.508-.432l-.288-1.4A4.943,4.943,0,0,1,315.81,352.371Z" transform="translate(-308.051 -343.822)" fill="#f8dc4a"/></g></g><g transform="translate(53.299 35.899)"><path d="M354.3,334.309a11.586,11.586,0,1,1-11.674-11.5A11.587,11.587,0,0,1,354.3,334.309Z" transform="translate(-331.126 -322.004)" fill="#f9ca35"/><path d="M353.3,334.92A9.993,9.993,0,1,1,343.234,325,9.991,9.991,0,0,1,353.3,334.92Z" transform="translate(-331.725 -322.603)" fill="#c99204"/><path d="M331.632,334.739a11.59,11.59,0,0,1,16.508-10.579,11.588,11.588,0,1,0-10.35,20.729A11.581,11.581,0,0,1,331.632,334.739Z" transform="translate(-331.126 -322.004)" fill="#b78523"/><path d="M352.992,335.112a9.493,9.493,0,1,1-9.565-9.421A9.494,9.494,0,0,1,352.992,335.112Z" transform="translate(-331.913 -322.791)" fill="#e8af2e"/><path d="M354.324,340.2a9.839,9.839,0,0,1-9.941,5.374,9.493,9.493,0,0,0,8.36-16.456A9.839,9.839,0,0,1,354.324,340.2Z" transform="translate(-334.75 -323.729)" fill="#b78523"/><g transform="translate(2.001)"><path d="M337.993,328.008a2.7,2.7,0,0,1,2.193-4.114,5.022,5.022,0,0,1-2.685.084,4.911,4.911,0,0,1-1.427-2.278,4.8,4.8,0,0,1,.053,2.742,4.533,4.533,0,0,1-2.247,1.37,2.7,2.7,0,0,1,4.113,2.2Z" transform="translate(-333.88 -321.7)" fill="#fff"/><g transform="translate(4.902 3.91)"><path d="M342.092,329.326a.961.961,0,0,1,.78-1.465.961.961,0,0,1-1.465-.78,1.7,1.7,0,0,1,.02.976,1.612,1.612,0,0,1-.8.489.962.962,0,0,1,1.465.78Z" transform="translate(-340.627 -327.081)" fill="#fff"/></g><g transform="translate(0.949 6.664)"><path d="M337.218,333.988a2.625,2.625,0,0,1-.04-1.327,2.653,2.653,0,0,1,1.124-.706,2.475,2.475,0,0,1-1.327.041,2.42,2.42,0,0,1-.706-1.125,2.372,2.372,0,0,1,.027,1.354,2.239,2.239,0,0,1-1.11.679,1.332,1.332,0,0,1,2.032,1.083Z" transform="translate(-335.186 -330.872)" fill="#fff"/></g></g><g transform="translate(4.668 6.132)"><g transform="translate(0 0.324)"><g transform="translate(2.585)"><path d="M349.757,341.687a7.1,7.1,0,0,1-2.906.5c-3.573,0-5.744-2.237-5.744-5.66a5.66,5.66,0,0,1,6.012-5.944,6.483,6.483,0,0,1,2.738.5l-.452,1.637a5.443,5.443,0,0,0-2.2-.435c-2.287,0-3.94,1.436-3.94,4.141a3.694,3.694,0,0,0,3.924,4.057,5.769,5.769,0,0,0,2.237-.417Z" transform="translate(-341.107 -330.585)" fill="#c99204"/></g><g transform="translate(0 4.185)"><rect width="9.178" height="1.343" fill="#c99204"/><rect width="9.178" height="1.344" transform="translate(0 2.295)" fill="#c99204"/></g></g><path d="M346.658,340.041a3.6,3.6,0,0,1-3.537-2.079h4.053V336.62h-4.405a5.676,5.676,0,0,1-.036-.638c0-.107,0-.211.009-.315h4.432v-1.343h-4.192a3.626,3.626,0,0,1,3.692-2.483,5.457,5.457,0,0,1,2.2.434l.451-1.637a6.493,6.493,0,0,0-2.739-.5,5.627,5.627,0,0,0-5.794,4.186h-2.8v1.343h2.6c-.007.136-.012.274-.012.416,0,.181.007.36.02.537h-2.6v1.341h2.835c.662,2.339,2.626,3.781,5.493,3.781a7.108,7.108,0,0,0,2.9-.5l-.333-1.62A5.73,5.73,0,0,1,346.658,340.041Z" transform="translate(-337.672 -330.139)" fill="#f8dc4a"/></g></g><g transform="translate(66.416 85.453)"><path d="M371.091,401.823a10.957,10.957,0,1,1-11.04-10.872A10.959,10.959,0,0,1,371.091,401.823Z" transform="translate(-349.178 -390.186)" fill="#f9ca35"/><path d="M370.151,402.4a9.45,9.45,0,1,1-9.522-9.378A9.451,9.451,0,0,1,370.151,402.4Z" transform="translate(-349.745 -390.753)" fill="#c99204"/><path d="M349.657,402.229a10.959,10.959,0,0,1,15.61-10,10.958,10.958,0,1,0-9.786,19.6A10.952,10.952,0,0,1,349.657,402.229Z" transform="translate(-349.178 -390.186)" fill="#b78523"/><path d="M369.855,402.583a8.976,8.976,0,1,1-9.044-8.908A8.975,8.975,0,0,1,369.855,402.583Z" transform="translate(-349.923 -390.932)" fill="#e8af2e"/><path d="M371.115,407.4a9.3,9.3,0,0,1-9.4,5.082,8.977,8.977,0,0,0,7.9-15.561A9.3,9.3,0,0,1,371.115,407.4Z" transform="translate(-352.605 -391.818)" fill="#b78523"/><g transform="translate(1.892)"><path d="M355.672,395.864a2.552,2.552,0,0,1,2.073-3.89,4.736,4.736,0,0,1-2.54.079,4.637,4.637,0,0,1-1.349-2.154,4.539,4.539,0,0,1,.05,2.593,4.288,4.288,0,0,1-2.125,1.3,2.554,2.554,0,0,1,3.89,2.075Z" transform="translate(-351.782 -389.899)" fill="#fff"/><g transform="translate(4.637 3.698)"><path d="M359.548,397.11a1.79,1.79,0,0,1-.028-.9,1.812,1.812,0,0,1,.766-.48,1.674,1.674,0,0,1-.9.028,1.644,1.644,0,0,1-.48-.766,1.62,1.62,0,0,1,.018.923,1.53,1.53,0,0,1-.756.462.909.909,0,0,1,1.384.738Z" transform="translate(-358.164 -394.988)" fill="#fff"/></g><g transform="translate(0.899 6.303)"><path d="M354.939,401.519a1.262,1.262,0,0,1,1.025-1.922,2.34,2.34,0,0,1-1.253.039,2.284,2.284,0,0,1-.667-1.064,2.242,2.242,0,0,1,.025,1.281,2.134,2.134,0,0,1-1.05.641,1.26,1.26,0,0,1,1.92,1.025Z" transform="translate(-353.019 -398.573)" fill="#fff"/></g></g><g transform="translate(6.823 4.825)"><g transform="translate(0 0.32)"><path d="M366.262,397.436l-.451,2.051a3.7,3.7,0,0,0-1.963-.32c-1.5.224-1.444,1.87-.943,3.765a3.4,3.4,0,0,1-.962,3.693h4.809v2.258h-8.185v-1.463a3.047,3.047,0,0,0,1.961-3.711c-.8-3.491-.451-5.167,1.49-6.216A5.009,5.009,0,0,1,366.262,397.436Z" transform="translate(-358.568 -396.98)" fill="#c99204"/><rect width="6.582" height="1.598" transform="translate(0.226 5.42)" fill="#c99204"/></g><g transform="translate(0.32)"><path d="M366.7,397l-.451,2.049a3.714,3.714,0,0,0-1.964-.319c-1.5.224-1.443,1.87-.942,3.765a3.4,3.4,0,0,1-.962,3.693h4.809v2.259h-8.185v-1.464a3.047,3.047,0,0,0,1.961-3.711c-.8-3.491-.45-5.168,1.49-6.216A5,5,0,0,1,366.7,397Z" transform="translate(-359.008 -396.54)" fill="#f8dc4a"/><rect width="6.582" height="1.597" transform="translate(0.226 5.42)" fill="#f8dc4a"/></g></g></g></g><g transform="translate(46.832 228.45)"><path d="M284.386,524.566,261.772,444.19l48.349-.458,48.352-.457c-7.029,26.931-13.73,52.607-20.76,79.536C320.4,528.156,302.418,529.763,284.386,524.566Z" transform="translate(-260.444 -440.42)" fill="#658339" fill-rule="evenodd"/><path d="M284.386,524.843l-22.614-80.376,18.964-.179c1.282,17.449,4.239,41.029,10.937,53.821,8.526,16.286,33.976,22.194,47.294,20.175l-1.254,4.805C320.4,528.433,302.418,530.039,284.386,524.843Z" transform="translate(-260.444 -440.697)" fill="#597535" fill-rule="evenodd"/><path d="M359.262,439.346l-97.7.924a1.633,1.633,0,0,0-1.614,1.644q.036,3.722.07,7.444a1.708,1.708,0,0,0,1.645,1.612,428.747,428.747,0,0,0,97.7-.924,1.708,1.708,0,0,0,1.612-1.643l-.07-7.445A1.632,1.632,0,0,0,359.262,439.346Z" transform="translate(-259.945 -439.346)" fill="#435929" fill-rule="evenodd"/></g><g transform="translate(0 0)"><path d="M259.859,184.069l-20.072-5.4,18.705-14.552c2.048-1.391-.249-8.4-5.144-16.2l7.767-5.277c.672-.458.551-1.807-.269-3.014s-2.031-1.817-2.7-1.36l-7.767,5.279c-5.448-7.423-11.119-12.136-13.165-10.744l-1.847,1.091a16.045,16.045,0,0,0-23.287-6.242c-6.841,4.648-15.12,19.155-11.85,26.954l-4.238,2.5c-1.947,1.322,2.011,10.542,8.841,20.591s13.944,17.126,15.892,15.8l8.092-6.3,29.992,1.567c.016,4.07,2.379,7.623,5.992,8.521l4.4-18.406C265.475,178.036,261.664,180.271,259.859,184.069Zm-9.964-40.192-.463.315-.331-.451c-4.434-6.04-8.711-9.818-11.015-10.6C240.068,133.113,244.88,137.047,249.895,143.876Zm6.39,17.654s-13.806-6.721-17.984-26.521A61.63,61.63,0,0,0,256.285,161.53ZM233.81,132.374a15.611,15.611,0,0,1,1.033,1.781l.033.071-.563.334-.28-.559A15.306,15.306,0,0,0,233,132.219a15.591,15.591,0,0,0-9.6-6.493A15.6,15.6,0,0,1,233.81,132.374Zm-31.166,20.854-.235-.666c-2.261-6.409,5.88-18.789,10.835-22.157a12.243,12.243,0,0,1,9.577-1.807,12.217,12.217,0,0,0-8.769,1.961c-4.955,3.367-13.1,15.749-10.835,22.157l.05.144Zm1.12-.7c-2.122-6.012,5.566-18.053,10.613-21.484a11.935,11.935,0,0,1,16.527,3.31,11.8,11.8,0,0,1,.918,1.632Zm24.865,34.091-8.234,6.407c-.2.134-.53.1-.977-.089a.471.471,0,0,0,.169-.066l8.233-6.406,30.757,1.607v.113Zm30.739-2.013L237.7,178.776l19.628-15.269c1.507-1.026-.275-7.456-5.279-15.429l-.3-.475,8.23-5.593c.294-.2.275-1.18-.422-2.2a3.436,3.436,0,0,0-1.086-1.056c.3-.194,1.2.185,1.893,1.208s.716,2.005.424,2.205l-8.231,5.593.3.476c5,7.975,6.785,14.4,5.279,15.429l-19.626,15.27,20.887,5.615Zm5.006,11.964a6.769,6.769,0,0,1-.766-.326l4.049-16.942a6.517,6.517,0,0,1,.831.054Z" transform="translate(-195.492 -124.94)" fill="#658339"/><path d="M297.491,225.463s1.817,2.18,1.453,6.539c0,0-.363,1.816,2,2.271a2.443,2.443,0,0,0,2.361-2.361S303.849,227.824,297.491,225.463Z" transform="translate(-223.378 -152.422)" fill="#56b797"/><path d="M311.49,226.8s1.817,2.18,1.453,6.539c0,0-.363,1.817,2,2.271a2.443,2.443,0,0,0,2.361-2.361S317.848,229.158,311.49,226.8Z" transform="translate(-227.205 -152.787)" fill="#56b797"/><path d="M323.824,244.8s1.817,2.18,1.453,6.539c0,0-.363,1.816,2,2.271a2.443,2.443,0,0,0,2.361-2.361S330.182,247.158,323.824,244.8Z" transform="translate(-230.577 -157.708)" fill="#56b797"/><path d="M322.823,220.463s1.817,2.18,1.453,6.539c0,0-.363,1.817,2,2.271a2.443,2.443,0,0,0,2.361-2.361S329.181,222.824,322.823,220.463Z" transform="translate(-230.303 -151.055)" fill="#56b797"/><path d="M298.588,212.161s2.252,1.726,2.858,6.059c0,0,.045,1.851,2.449,1.774a2.443,2.443,0,0,0,1.783-2.823S305.31,213.064,298.588,212.161Z" transform="translate(-223.678 -148.786)" fill="#56b797"/><path d="M307.176,204.813s2.708.845,4.769,4.7c0,0,.68,1.723,2.911.823a2.444,2.444,0,0,0,.7-3.265S313.8,203.346,307.176,204.813Z" transform="translate(-226.025 -146.683)" fill="#56b797"/><path d="M309.98,243.174s1.4,2.47.254,6.694c0,0-.684,1.722,1.558,2.593a2.443,2.443,0,0,0,2.747-1.9S315.81,246.639,309.98,243.174Z" transform="translate(-226.792 -157.264)" fill="#56b797"/></g></g><g transform="translate(499 -160)"><g transform="translate(567 502)"><path d="M702.493,372.366a31.028,31.028,0,1,1-31.264-30.791A31.03,31.03,0,0,1,702.493,372.366Z" fill="#f9ca35"/><path d="M698.225,372.4a26.761,26.761,0,1,1-26.964-26.556A26.761,26.761,0,0,1,698.225,372.4Z" fill="#c99204"/><path d="M641.795,373.515A31.039,31.039,0,0,1,686,345.184,31.033,31.033,0,1,0,658.287,400.7,31.025,31.025,0,0,1,641.795,373.515Z" fill="#b78523"/><path d="M696.885,372.408a25.421,25.421,0,1,1-25.614-25.227A25.42,25.42,0,0,1,696.885,372.408Z" fill="#e8af2e"/><path d="M692.857,383.527a26.344,26.344,0,0,1-26.621,14.392,25.421,25.421,0,0,0,22.386-44.067A26.344,26.344,0,0,1,692.857,383.527Z" fill="#b78523"/><path d="M656.812,356.3c-.709-2.331-.758-6.193-.224-7.2.523-.98,3.767-3.112,6.1-3.82-2.329.708-6.036.839-7.191.225-1.212-.647-3.112-3.769-3.822-6.1.727,2.391.848,6.019.142,7.343-.727,1.365-3.744,2.979-6.016,3.671,2.331-.709,6.051-.832,7.193-.223S656.1,353.972,656.812,356.3Z" fill="#fff"/><path d="M662.85,355.894a2.572,2.572,0,0,1,2.088-3.921,4.774,4.774,0,0,1-2.559.079,4.668,4.668,0,0,1-1.36-2.17,4.592,4.592,0,0,1,.051,2.614,4.323,4.323,0,0,1-2.143,1.306,2.577,2.577,0,0,1,3.923,2.092Z" fill="#fff"/><path d="M653.78,365.6a3.572,3.572,0,0,1,2.9-5.441,6.651,6.651,0,0,1-3.552.111,6.5,6.5,0,0,1-1.888-3.013,6.349,6.349,0,0,1,.072,3.628,6.023,6.023,0,0,1-2.974,1.813,3.57,3.57,0,0,1,5.441,2.9Z" fill="#fff"/><path d="M681.549,355.275l-1.275,5.806a10.494,10.494,0,0,0-5.561-.9c-4.242.633-4.088,5.294-2.671,10.662,1.442,5.461-.694,8.655-2.724,10.461h13.619v6.4H659.759v-4.147a8.626,8.626,0,0,0,5.553-10.507c-2.276-9.889-1.276-14.633,4.22-17.606C675.406,352.26,681.549,355.275,681.549,355.275Z" fill="#c99204"/><rect width="18.64" height="4.523" transform="translate(660.399 369.331)" fill="#c99204"/><path d="M682.455,354.369l-1.275,5.806a10.5,10.5,0,0,0-5.561-.906c-4.243.634-4.088,5.295-2.67,10.665,1.441,5.459-.695,8.655-2.724,10.46h13.619v6.4H660.665v-4.147a8.627,8.627,0,0,0,5.554-10.507c-2.276-9.888-1.276-14.633,4.219-17.606C676.313,351.352,682.455,354.369,682.455,354.369Z" fill="#f8dc4a"/><rect width="18.64" height="4.523" transform="translate(661.306 368.425)" fill="#f8dc4a"/></g><g transform="translate(567 502)"><path d="M676.2,399.318c-.864.254-24.009-.887-30.52.645-4.78,1.125-9.394,6.125-2.823,8.837s31.673-.192,31.673-.192Z" fill="#f7c6b1" fill-rule="evenodd"/><path d="M893.645,474.932c-14.385,25.968-34.861,27.279-71.522-2.267s-94.9-74.03-100.111-72.491S693.3,416.019,675.1,418.944s-37.411,2.378-40.917-5.643c-2.4-5.507,10.531-3.3,26.809-7.4,15.559-3.921,34.291-14.086,40.509-22.119,5.872-7.584,5.937-19.49,19.951-17.407s23.935,13.3,23.935,13.3C771.824,389.3,917.438,431.973,893.645,474.932Z" fill="#fbd2c0" fill-rule="evenodd"/><path d="M893.645,474.932c-14.385,25.968-34.861,27.279-71.522-2.267s-94.9-74.03-100.111-72.491S693.3,416.019,675.1,418.944c-17.309,2.783-35.545,2.424-40.3-4.526,2.494.478,5.944,1.688,10,2.83,6.945,1.957,32.735-2.08,48.363-6.182s24.435-21.231,30.2-22.467,6.9,7.395,6.9,7.395,77.988,54.782,100.586,68.669,43.275,13.767,50.268,6.792c6.855-6.833,9.42-20.441,9.517-20.986C896.52,458.459,898.211,466.689,893.645,474.932Z" fill="#f7c6b1" fill-rule="evenodd"/></g><path d="M730.159,411.131l21.333-34.666,141.333,58,15.334,36S894.825,489.8,892.825,491.13s-10,17.333-16,18-24.666-3.334-26.666-4.667S730.159,411.131,730.159,411.131Z" transform="translate(567 502)" fill="#7d7399"/></g></g></g></g></svg>