<svg xmlns="http://www.w3.org/2000/svg" xmlns:xlink="http://www.w3.org/1999/xlink" width="668" height="668" viewBox="0 0 668 668"><defs><clipPath id="a"><rect width="668" height="668" transform="translate(1252 1691)" fill="#fff" stroke="#707070" stroke-width="1"/></clipPath></defs><g transform="translate(-1252 -1691)" clip-path="url(#a)"><g transform="translate(-406.339 1569.889) rotate(-48)"><g transform="translate(652 1426.394)"><g transform="translate(124.139 0)"><g transform="translate(223.046 65.177)"><path d="M502.869,701.971V257.338c0-16.167-11.81-16.167-11.81,0V701.971Z" transform="translate(-491.059 -245.213)" fill="#541f55"/></g><g transform="translate(119.411 343.561)"><g transform="translate(68.958 65.449)"><rect width="4.723" height="53.754" transform="translate(0 3.412) rotate(-46.257)" fill="#541f55"/></g><path d="M433.836,723.986s18.894-81.089-89.36-85.027C344.477,638.959,343.7,740.523,433.836,723.986Z" transform="translate(-344.477 -638.959)" fill="#a6d2e2"/><g transform="translate(0)"><path d="M433.837,723.986l-89.36-85.027C452.731,642.9,433.837,723.986,433.837,723.986Z" transform="translate(-344.477 -638.959)" fill="#fff"/></g></g><g transform="translate(231.751 196.173)"><g transform="translate(0 34.159)"><rect width="23.153" height="2.033" transform="matrix(0.563, -0.826, 0.826, 0.563, 0, 19.131)" fill="#541f55"/></g><g transform="translate(5.04)"><path d="M513.074,474.466s35.793,2.3,29.817-43.973C542.891,430.493,499.68,437.332,513.074,474.466Z" transform="translate(-510.499 -430.493)" fill="#a6d2e2"/><g transform="translate(2.575)"><path d="M514.141,474.466l29.817-43.973C549.934,476.771,514.141,474.466,514.141,474.466Z" transform="translate(-514.141 -430.493)" fill="#fff"/></g></g></g><g transform="translate(157.872)"><g transform="translate(0)"><path d="M464.186,153.027a65.176,65.176,0,1,0,65.043,65.3A65.181,65.181,0,0,0,464.186,153.027Z" transform="translate(-398.877 -153.027)" fill="#fcb813"/><path d="M466.445,279.833a59.123,59.123,0,1,1,59.239-59.009A59.193,59.193,0,0,1,466.445,279.833Z" transform="translate(-401.384 -155.534)" fill="#f4dc76"/></g><g transform="translate(12.569 12.567)"><path d="M469.368,170.8a52.606,52.606,0,1,0,52.5,52.712A52.675,52.675,0,0,0,469.368,170.8Z" transform="translate(-416.654 -170.802)" fill="#fcb813"/><path d="M485.673,260.4l-.02,11.508-10.947-.024.017-10.72c-7.489-.24-14.741-2.375-18.983-4.734l3.372-13.064a39.39,39.39,0,0,0,18.535,4.951c6.371.018,10.846-2.545,10.855-6.9.01-4.249-3.672-6.934-11.935-9.747-11.946-4.043-20.093-9.642-20.062-20.484.012-9.946,6.96-17.639,18.918-19.848l.02-10.613,10.947.021-.022,9.834a39.484,39.484,0,0,1,16.309,3.717L499.3,206.918a34.709,34.709,0,0,0-16.087-3.949c-7.26-.015-9.608,3.22-9.615,6.346-.01,3.585,3.894,6.046,13.389,9.523,13.4,4.724,18.632,10.882,18.611,21.046C505.578,249.824,498.635,258.194,485.673,260.4Z" transform="translate(-428.106 -173.709)" fill="#f4dc76"/></g></g><g transform="translate(223.048 176.979)"><g transform="translate(0 45.775)"><path d="M645.188,468.089,493.354,625.924c-5.517,5.74-.035,11.015,5.486,5.276L650.67,473.365Z" transform="translate(-491.062 -468.089)" fill="#541f55"/></g><g transform="translate(71.543 138.628)"><g transform="translate(0 0.013)"><rect width="2.738" height="31.158" transform="matrix(0.392, -0.92, 0.92, 0.392, 0, 2.518)" fill="#541f55"/></g><g transform="translate(15.365)"><path d="M613.985,607.059s6.354,47.839,65.86,27.81C679.845,634.869,659.474,579.637,613.985,607.059Z" transform="translate(-613.985 -599.421)" fill="#a6d2e2"/><g transform="translate(0 7.638)"><path d="M613.985,610.224l65.86,27.81C620.339,658.063,613.985,610.224,613.985,610.224Z" transform="translate(-613.985 -610.224)" fill="#fff"/></g></g></g><g transform="translate(69.008 67.814)"><g transform="translate(0 0)"><rect width="4.724" height="53.752" transform="translate(0 0.997) rotate(-12.187)" fill="#541f55"/></g></g><g transform="translate(113.829)"><path d="M726.12,413.129a45.774,45.774,0,1,0,7.714,64.27A45.777,45.777,0,0,0,726.12,413.129Z" transform="translate(-652.062 -403.346)" fill="#fcb813"/><path d="M673.953,483.541a41.525,41.525,0,1,1,58.3-7A41.567,41.567,0,0,1,673.953,483.541Z" transform="translate(-653.831 -405.115)" fill="#f4dc76"/><g transform="translate(8.845 8.844)"><path d="M724.332,423.733a36.946,36.946,0,1,0,6.224,51.879A37,37,0,0,0,724.332,423.733Z" transform="translate(-664.572 -415.854)" fill="#fcb813"/><path d="M693.676,477.694l-4.994,6.356-6.045-4.754,4.653-5.921a31.59,31.59,0,0,1-8.452-10.831l7.519-5.769a27.711,27.711,0,0,0,8.109,10.765c3.513,2.764,7.1,3.285,8.991.88,1.843-2.349.97-5.428-2.38-10.557-4.86-7.41-6.942-14.033-2.237-20.016,4.316-5.492,11.486-6.744,19.058-2.79l4.6-5.86,6.045,4.748-4.266,5.431a27.819,27.819,0,0,1,7.41,9.112l-7.334,5.525a24.331,24.331,0,0,0-7.185-9.147c-4.01-3.15-6.71-2.38-8.068-.651-1.554,1.978-.46,5.03,3.284,11.059,5.366,8.413,5.6,14.085,1.186,19.7C709.261,480.458,701.8,482.081,693.676,477.694Z" transform="translate(-668.751 -419.763)" fill="#f4dc76"/></g></g><g transform="translate(45.958 36.518)"><path d="M572.7,455.91a23.025,23.025,0,1,0,28.517,15.72A23.021,23.021,0,0,0,572.7,455.91Z" transform="translate(-556.065 -454.997)" fill="#fcb813"/><path d="M585.79,498.982a20.888,20.888,0,1,1,14.258-25.87A20.914,20.914,0,0,1,585.79,498.982Z" transform="translate(-556.953 -455.885)" fill="#f4dc76"/><g transform="translate(4.444 4.445)"><path d="M575.771,462.019a18.585,18.585,0,1,0,23.02,12.689A18.608,18.608,0,0,0,575.771,462.019Z" transform="translate(-562.351 -461.284)" fill="#fcb813"/><path d="M589.549,492.005l1.131,3.906-3.712,1.074-1.053-3.639a15.931,15.931,0,0,1-6.908.272l-.148-4.765a13.919,13.919,0,0,0,6.776-.153c2.166-.624,3.427-1.934,3-3.414-.416-1.44-1.929-1.99-5.01-2.125-4.453-.19-7.769-1.286-8.833-4.964-.977-3.377.619-6.67,4.456-8.605l-1.044-3.6,3.716-1.078.964,3.339a13.967,13.967,0,0,1,5.9-.352l.1,4.615a12.3,12.3,0,0,0-5.846.252c-2.465.713-2.937,2.044-2.636,3.1.351,1.222,1.918,1.667,5.481,1.912,5.013.275,7.4,1.844,8.4,5.3C595.258,486.45,593.729,489.975,589.549,492.005Z" transform="translate(-565.914 -462.348)" fill="#f4dc76"/></g></g></g><g transform="translate(0 157.753)"><g transform="translate(46.441 45.145)"><path d="M241.268,446.085l174.95,131.739c6.365,4.788,10.941-1.289,4.579-6.079L245.84,440.006Z" transform="translate(-241.268 -440.006)" fill="#541f55"/></g><g transform="translate(143.546 37.136)"><g transform="translate(4.89 53.909)"><rect width="31.156" height="2.738" transform="matrix(0.279, -0.96, 0.96, 0.279, 0, 29.921)" fill="#541f55"/></g><path d="M389.355,497.407s46.727-12.067,19.683-68.73C409.038,428.677,356.657,455.541,389.355,497.407Z" transform="translate(-378.613 -428.677)" fill="#a6d2e2"/><g transform="translate(10.742)"><path d="M393.807,497.407l19.683-68.73C440.534,485.34,393.807,497.407,393.807,497.407Z" transform="translate(-393.807 -428.677)" fill="#fff"/></g></g><g transform="translate(78.003 110.879)"><path d="M338.24,537.444l-1.543-4.465-50.787,17.627,1.553,4.465Z" transform="translate(-285.911 -532.979)" fill="#541f55"/></g><path d="M182.228,398.186A45.775,45.775,0,1,0,245.1,382.8,45.78,45.78,0,0,0,182.228,398.186Z" transform="translate(-175.583 -376.152)" fill="#fcb813"/><path d="M258.628,445.242A41.523,41.523,0,1,1,244.666,388.2,41.567,41.567,0,0,1,258.628,445.242Z" transform="translate(-177.35 -377.921)" fill="#f4dc76"/><g transform="translate(8.84 8.843)"><path d="M193.435,406.433A36.947,36.947,0,1,0,244.19,394.01,36.995,36.995,0,0,0,193.435,406.433Z" transform="translate(-188.086 -388.66)" fill="#fcb813"/><path d="M250.472,440.01l6.909,4.194-3.99,6.57-6.439-3.9a31.612,31.612,0,0,1-9.736,9.695l-6.63-6.772a27.66,27.66,0,0,0,9.706-9.345c2.324-3.82,2.411-7.443-.206-9.033-2.552-1.545-5.5-.309-10.193,3.638-6.767,5.711-13.092,8.578-19.6,4.626-5.976-3.625-8.077-10.59-5.064-18.583l-6.372-3.866,3.986-6.574,5.9,3.584a27.752,27.752,0,0,1,8.159-8.452l6.361,6.612a24.368,24.368,0,0,0-8.214,8.237c-2.643,4.359-1.552,6.945.325,8.085,2.149,1.307,5.049-.146,10.588-4.589,7.7-6.341,13.307-7.253,19.408-3.547C251.345,424.2,253.85,431.419,250.472,440.01Z" transform="translate(-191.243 -393.678)" fill="#f4dc76"/></g><g transform="translate(47.324 111.052)"><path d="M244.362,565.269a23.026,23.026,0,1,0,12.173-30.2A23.022,23.022,0,0,0,244.362,565.269Z" transform="translate(-242.518 -533.224)" fill="#fcb813"/><path d="M285.661,548.967a20.888,20.888,0,1,1-27.4-11.044A20.912,20.912,0,0,1,285.661,548.967Z" transform="translate(-243.407 -534.113)" fill="#f4dc76"/><g transform="translate(4.446 4.446)"><path d="M250.289,565.373A18.586,18.586,0,1,0,260.117,541,18.608,18.608,0,0,0,250.289,565.373Z" transform="translate(-248.806 -539.513)" fill="#fcb813"/><path d="M279.013,555.085l3.742-1.589,1.515,3.556-3.486,1.484a15.88,15.88,0,0,1,1.1,6.824l-4.711.721a13.961,13.961,0,0,0-.966-6.709c-.882-2.072-2.335-3.17-3.751-2.569-1.385.59-1.744,2.154-1.508,5.231.344,4.443-.341,7.869-3.868,9.366-3.232,1.377-6.7.192-9.074-3.389l-3.452,1.47-1.512-3.56,3.2-1.358a13.946,13.946,0,0,1-1.058-5.814l4.569-.659a12.22,12.22,0,0,0,.952,5.775c1.005,2.364,2.379,2.671,3.4,2.243,1.167-.495,1.425-2.1,1.234-5.671-.327-5.008.945-7.568,4.248-8.973C272.811,550.089,276.5,551.185,279.013,555.085Z" transform="translate(-250.047 -542.848)" fill="#f4dc76"/></g></g></g><g transform="translate(229.932 164.366)"><path d="M500.8,423.064l3.293,3.383,38.455-37.562-3.3-3.379Z" transform="translate(-500.797 -385.506)" fill="#541f55"/></g><g transform="translate(253.203 136.416)"><path d="M572.078,351.827a23.026,23.026,0,1,0,1.837,32.511A23.025,23.025,0,0,0,572.078,351.827Z" transform="translate(-533.712 -345.973)" fill="#fcb813"/><path d="M543.715,385.47a20.888,20.888,0,1,1,29.493-1.67A20.914,20.914,0,0,1,543.715,385.47Z" transform="translate(-534.603 -346.864)" fill="#f4dc76"/><g transform="translate(4.451 4.45)"><path d="M570.965,356.983a18.586,18.586,0,1,0,1.479,26.24A18.612,18.612,0,0,0,570.965,356.983Z" transform="translate(-540.007 -352.268)" fill="#fcb813"/><path d="M553.923,383.2l-2.709,3.032-2.88-2.575,2.52-2.825a15.924,15.924,0,0,1-3.9-5.7l3.959-2.658a13.926,13.926,0,0,0,3.729,5.658c1.676,1.5,3.464,1.876,4.492.73,1-1.121.656-2.693-.867-5.374-2.2-3.877-3.04-7.265-.488-10.124,2.34-2.621,5.978-3.021,9.656-.8l2.494-2.8,2.888,2.576-2.313,2.588a14,14,0,0,1,3.431,4.811l-3.855,2.54a12.293,12.293,0,0,0-3.32-4.818c-1.911-1.708-3.288-1.4-4.029-.583-.846.943-.393,2.511,1.3,5.656,2.429,4.393,2.367,7.251-.028,9.927C561.663,385.086,557.865,385.662,553.923,383.2Z" transform="translate(-542.043 -354.465)" fill="#f4dc76"/></g></g><g transform="translate(180.909 177.221)"><g transform="translate(0 0)"><rect width="5.591" height="63.599" transform="matrix(0.725, -0.689, 0.689, 0.725, 0, 3.85)" fill="#541f55"/></g></g><g transform="translate(147.96 144.465)"><path d="M392.032,366.177a27.244,27.244,0,1,0,38.493-1.642A27.243,27.243,0,0,0,392.032,366.177Z" transform="translate(-384.856 -357.358)" fill="#fcb813"/><path d="M431.359,402.374a24.715,24.715,0,1,1-1.495-34.922A24.748,24.748,0,0,1,431.359,402.374Z" transform="translate(-385.909 -358.411)" fill="#f4dc76"/><g transform="translate(5.262 5.266)"><path d="M398.082,371.912a21.99,21.99,0,1,0,31.071-1.323A22.015,22.015,0,0,0,398.082,371.912Z" transform="translate(-392.299 -364.806)" fill="#fcb813"/><path d="M428.856,397.429l3.549,3.257-3.1,3.367-3.3-3.031a18.742,18.742,0,0,1-6.812,4.521l-3.081-4.724a16.468,16.468,0,0,0,6.754-4.32c1.8-1.959,2.277-4.067.937-5.3-1.31-1.2-3.174-.822-6.372.935-4.623,2.545-8.647,3.482-11.987.414-3.064-2.813-3.474-7.124-.778-11.435l-3.272-3,3.1-3.374,3.025,2.779a16.458,16.458,0,0,1,5.746-3.976l2.943,4.6a14.5,14.5,0,0,0-5.757,3.848c-2.053,2.236-1.714,3.871-.754,4.757,1.1,1.017,2.964.5,6.715-1.44,5.236-2.8,8.614-2.685,11.743.193C431.212,388.3,431.834,392.807,428.856,397.429Z" transform="translate(-394.963 -367.365)" fill="#f4dc76"/></g></g></g><g transform="translate(0 451.029)"><path d="M475.316,794.469l36.306,15.544-16.248,12.025-23.14-4.628Z" transform="translate(-138.358 -791.989)" fill="#a0a7aa"/><path d="M330.635,832.324a7.2,7.2,0,0,1,7.177-7.175h8.114a38.24,38.24,0,0,0,13.667-3.059l64.441-30.376a9.01,9.01,0,0,1,10.7,2.755L550.155,954.136a6.293,6.293,0,0,1-2.04,9.35l-96.366,54.533a11.428,11.428,0,0,1-11.834-.968L344.768,940.4a21.36,21.36,0,0,0-9.86-4.343c-3.616-.259-4.272-3.073-4.272-7.017Z" transform="translate(-96.871 -790.961)" fill="#fff"/><rect width="16.772" height="129.741" transform="translate(216.992 23.428)" fill="#fff"/><rect width="216.992" height="129.741" transform="translate(0 23.428)" fill="#443e96"/><path d="M559.323,984.649c-2.557-3.182-7.006,1.326-4.475,4.475l35.373,44.014,5.548-3.14Z" transform="translate(-162.342 -847.39)" fill="#541f55"/><path d="M513.351,1006.908c-2.708-3.065-7.167,1.429-4.475,4.475q19.646,22.23,39.292,44.456l5.619-3.179Q533.568,1029.783,513.351,1006.908Z" transform="translate(-148.849 -853.93)" fill="#541f55"/><path d="M509.565,1075.706l-47.622-46.5c-2.92-2.852-7.4,1.619-4.474,4.474l46.36,45.277Z" transform="translate(-133.753 -860.494)" fill="#541f55"/><g transform="translate(244.909 114.893)" style="mix-blend-mode:multiply;isolation:isolate"><path d="M346.4,986.2l59.9-31.758a9.4,9.4,0,0,1,9.572.742l69.876,54.833a4.917,4.917,0,0,1,.42,7.568l-47.711,42.268Z" transform="translate(-346.399 -953.466)" fill="#a0a7aa"/><path d="M474.159,1048.631c-2.453,2.163-5.421-1.923-2.993-4.064l33.933-29.922,4.024,3.157Q491.64,1033.216,474.159,1048.631Z" transform="translate(-382.689 -971.391)" fill="#a0a7aa"/><path d="M440.334,1025.495c-2.559,2.052-5.537-2.024-2.994-4.064l37.12-29.772,4.074,3.2Q459.434,1010.177,440.334,1025.495Z" transform="translate(-372.759 -964.656)" fill="#a0a7aa"/><path d="M446.208,971.388q-22.016,15.157-44.036,30.317c-2.7,1.859-5.7-2.2-2.992-4.065q21.434-14.758,42.87-29.517Z" transform="translate(-361.552 -957.76)" fill="#a0a7aa"/></g><g transform="translate(244.909 113.319)"><path d="M346.4,985.544l58.563-33.332a9.042,9.042,0,0,1,9.371.741l68.417,54.832a4.984,4.984,0,0,1,.41,7.568l-46.714,42.268Z" transform="translate(-346.399 -951.239)" fill="#efc273"/><path d="M471.363,1046.4c-2.4,2.163-5.308-1.923-2.931-4.065q16.613-14.962,33.225-29.923l3.939,3.157Q488.481,1030.99,471.363,1046.4Z" transform="translate(-381.894 -969.163)" fill="#fff"/><path d="M438.244,1023.267c-2.505,2.052-5.421-2.025-2.931-4.065l36.343-29.77,3.989,3.2Q456.946,1007.949,438.244,1023.267Z" transform="translate(-372.172 -962.429)" fill="#fff"/><path d="M444,969.159q-21.556,15.158-43.115,30.317c-2.642,1.859-5.576-2.2-2.929-4.064q20.986-14.757,41.973-29.517Z" transform="translate(-361.198 -955.533)" fill="#fff"/></g><g transform="translate(467.908 32.103)"><rect width="16.772" height="129.741" fill="#fff"/><rect width="221.583" height="129.741" transform="translate(16.772)" fill="#541f55"/></g><path d="M395.5,883.039s8.569,18.946,34.1,12.829S467.57,877.3,476.01,880.256s41.348,32.067,47.044,29.957,5.062-30.38,3.585-32.067-30.587-21.1-30.587-21.1l-28.48-1.265Z" transform="translate(-115.877 -809.954)" fill="#a0a7aa" style="mix-blend-mode:multiply;isolation:isolate"/><path d="M577.672,834.169a33.912,33.912,0,0,1-12.158-3.121L491.944,795.52a13.639,13.639,0,0,0-12.362.962l-77.224,53.434a6.822,6.822,0,0,0-.993.836l-.1-.078s-10.4,5.964-6.177,14.4,28.273,12.492,37.173,8.778a10.3,10.3,0,0,0,.945-.458c.224-.074.463-.129.675-.219l35.277-14.723a13.262,13.262,0,0,1,12.2,1.756l33.579,27.244a73.025,73.025,0,0,1,9.937,10.216l35.573,46.413a7.648,7.648,0,0,0,10.271,1.622l.421-.291c3.249-2.241,7.316-3.713,9.07-3.653,3.165.11,3.165-2.805,3.165-6.752V841.345C583.368,837.4,580.8,834.169,577.672,834.169Z" transform="translate(-115.459 -791.989)" fill="#efc273"/><g transform="translate(499.578 130.463)"><path d="M717.573,980.973a5.485,5.485,0,1,1-5.486-5.486A5.485,5.485,0,0,1,717.573,980.973Z" transform="translate(-706.602 -975.487)" fill="#fff"/><path d="M773.072,980.973a5.486,5.486,0,1,1-5.486-5.486A5.485,5.485,0,0,1,773.072,980.973Z" transform="translate(-722.862 -975.487)" fill="#fff"/></g><g transform="translate(141.308 118.195)"><path d="M210.837,963.622a5.485,5.485,0,1,1-5.485-5.486A5.485,5.485,0,0,1,210.837,963.622Z" transform="translate(-199.866 -958.136)" fill="#fff"/><path d="M266.336,963.622a5.485,5.485,0,1,1-5.485-5.486A5.485,5.485,0,0,1,266.336,963.622Z" transform="translate(-216.127 -958.136)" fill="#fff"/></g></g></g></g></g></svg>