<svg xmlns="http://www.w3.org/2000/svg" width="1922.071" height="1046.414" viewBox="0 0 1922.071 1046.414"><g transform="translate(3.036 -180.793)"><line x1="201" y2="201" transform="translate(170.5 329.5)" fill="none" stroke="#fff" stroke-linecap="round" stroke-width="8" opacity="0.18"/><line y1="229" x2="229" transform="translate(170.5 659.5)" fill="none" stroke="#fff" stroke-linecap="round" stroke-width="8" opacity="0.18"/><line y1="393" x2="393" transform="translate(271.5 266.5)" fill="none" stroke="#fff" stroke-linecap="round" stroke-width="10" opacity="0.47"/><line x1="106" y2="106" transform="translate(1127.5 205.5)" fill="none" stroke="#fff" stroke-linecap="round" stroke-width="3" opacity="0.47"/><line x1="658" y2="659" transform="translate(816.5 205.5)" fill="none" stroke="#fff" stroke-linecap="round" stroke-width="3" opacity="0.47"/><line y1="80" x2="80" transform="translate(849.5 598.5)" fill="none" stroke="#fff" stroke-linecap="round" stroke-width="3" opacity="0.47"/><line y1="419" x2="419" transform="translate(1307.5 678.5)" fill="none" stroke="#fff" stroke-linecap="round" stroke-width="5" opacity="0.8"/><line x1="144" y2="144" transform="translate(1771.5 266.5)" fill="none" stroke="#fff" stroke-linecap="round" stroke-width="5" opacity="0.68"/><line x1="239" y2="239" transform="translate(1347.5 476.5)" fill="none" stroke="#fff" stroke-linecap="round" stroke-width="5" opacity="0.8"/><line y1="105" x2="105" transform="translate(42.5 647.5)" fill="none" stroke="#fff" stroke-linecap="round" stroke-width="5" opacity="0.8"/><line x1="130" y2="130" transform="translate(0.5 258.5)" fill="none" stroke="#fff" stroke-linecap="round" stroke-width="5" opacity="0.6"/><line y1="357" x2="357" transform="translate(53.5 544.5)" fill="none" stroke="#fff" stroke-width="2" opacity="0.6"/><line x1="433" y2="433" transform="translate(914.5 181.5)" fill="none" stroke="#fff" stroke-width="2" opacity="0.6"/><line x1="691" y2="691" transform="translate(586.5 535.5)" fill="none" stroke="#fff" stroke-width="2" opacity="0.6"/><line y1="431" x2="431" transform="translate(1467.5 358.5)" fill="none" stroke="#fff" stroke-width="2" opacity="0.6"/></g></svg>